<?xml version="1.0" standalone="no"?>
<!DOCTYPE svg PUBLIC "-//W3C//DTD SVG 20010904//EN"
 "http://www.w3.org/TR/2001/REC-SVG-20010904/DTD/svg10.dtd">
<svg version="1.0" xmlns="http://www.w3.org/2000/svg"
 width="999.000000pt" height="437.000000pt" viewBox="0 0 999.000000 437.000000"
 preserveAspectRatio="xMidYMid meet">

<g transform="translate(0.000000,437.000000) scale(0.100000,-0.100000)"
fill="#000000" stroke="none">
<path d="M20 4216 c0 -101 -4 -157 -11 -162 -8 -4 -8 -9 0 -17 16 -16 15 -347
-1 -347 -9 0 -9 -3 0 -12 16 -16 17 -229 1 -245 -8 -8 -8 -13 0 -17 14 -9 15
-212 1 -221 -8 -5 -8 -11 0 -20 8 -9 9 -47 5 -117 -3 -57 -8 -669 -11 -1362
l-4 -1258 90 5 c50 2 103 2 118 -1 l27 -6 -25 -7 c-16 -5 -4 -7 35 -5 33 1 69
6 80 10 11 4 15 4 8 -1 -6 -4 82 -8 197 -8 115 0 212 3 216 7 4 5 32 8 62 8
63 0 62 -10 -1 -21 -30 -5 -8 -7 78 -9 143 -4 223 -1 290 10 28 5 55 4 61 -1
6 -5 34 -7 62 -4 28 3 53 1 57 -4 3 -6 11 -8 18 -6 29 10 167 13 173 3 4 -5
17 -8 30 -5 13 2 24 0 24 -5 0 -5 9 -4 20 2 14 8 26 8 40 0 16 -9 20 -8 20 6
0 11 5 14 16 10 9 -3 25 -7 37 -7 14 -1 9 -4 -13 -9 -34 -7 -34 -7 12 -9 38
-1 46 2 42 14 -4 8 -1 15 5 15 6 0 11 -7 11 -16 0 -11 5 -14 16 -10 9 3 22 6
30 6 9 0 12 5 8 11 -5 9 1 10 22 4 57 -15 323 -21 480 -11 42 3 74 2 70 -1 -4
-4 -19 -8 -34 -9 -15 -1 -115 -7 -222 -14 -107 -7 -197 -14 -200 -17 -3 -3 78
-1 180 3 102 5 259 9 350 9 91 -1 152 2 135 6 -28 6 -28 7 -4 8 14 0 30 -4 37
-11 9 -9 12 -9 12 1 0 7 5 9 10 6 6 -4 25 -8 43 -11 23 -2 28 -1 17 6 -9 6
-10 10 -3 10 6 0 14 -4 18 -9 3 -6 231 -9 581 -7 515 2 576 1 584 -13 6 -10
10 -11 10 -3 0 6 9 12 20 12 12 0 17 -5 14 -13 -3 -10 3 -13 24 -9 16 2 33 -1
36 -7 4 -7 -1 -11 -13 -11 -11 0 -23 -5 -26 -10 -7 -11 38 -14 49 -3 3 4 76 8
161 8 121 2 155 -1 159 -11 3 -8 16 -14 28 -14 83 0 206 -7 215 -13 6 -4 13
-3 15 3 4 14 128 13 128 -1 0 -4 14 -12 31 -19 17 -7 38 -20 47 -29 14 -14 80
-16 611 -16 328 0 601 -3 608 -8 6 -4 14 -4 17 1 2 4 17 7 33 6 15 0 62 -2
103 -3 56 -2 69 -5 50 -11 -25 -9 9 -11 158 -10 29 0 61 -4 71 -10 14 -7 27
-6 46 4 27 14 27 14 -26 20 -30 2 -67 5 -84 5 -72 1 -116 1 -123 -1 -4 -1 -14
2 -22 5 -8 3 -31 8 -50 9 -19 2 -35 8 -35 13 0 26 330 36 407 12 27 -8 45 -11
42 -6 -3 5 2 9 11 9 10 0 13 -5 9 -11 -5 -8 2 -10 21 -7 33 7 99 -18 89 -33
-3 -6 -13 -8 -21 -5 -9 4 -23 1 -31 -6 -13 -11 -14 -11 -8 0 6 10 -5 11 -49 7
-33 -3 -54 -1 -51 4 3 5 -1 12 -10 15 -24 9 -42 6 -19 -4 14 -6 15 -9 5 -10
-8 0 0 -7 18 -15 18 -8 40 -11 48 -8 9 3 19 1 23 -5 3 -5 47 -13 96 -16 130
-9 155 -9 170 4 8 7 15 7 19 1 7 -10 66 -8 84 3 6 3 13 2 17 -4 4 -6 11 -8 16
-4 6 4 6 11 -2 20 -8 10 -8 14 0 14 6 0 11 -5 11 -11 0 -7 12 -9 33 -6 17 3
26 3 20 0 -23 -9 -14 -25 10 -17 30 11 108 6 124 -8 16 -13 43 -3 43 17 0 12
-13 15 -60 16 -68 2 -82 3 -129 14 -34 8 -34 8 -10 17 15 6 25 5 27 -1 2 -6
10 -11 18 -11 8 0 11 6 8 15 -5 11 1 15 25 15 17 0 31 -5 31 -11 0 -6 6 -9 13
-6 6 2 11 10 9 16 -1 7 15 11 44 11 27 0 43 -4 39 -10 -3 -5 -2 -10 4 -10 5 0
12 6 14 13 4 9 6 9 6 0 1 -8 13 -12 29 -12 23 2 24 2 5 6 -37 7 -26 19 18 22
23 1 38 -2 35 -7 -7 -11 55 -14 307 -14 146 1 188 -2 184 -12 -3 -8 7 -13 32
-14 31 -1 33 0 14 8 -30 12 -29 20 1 18 15 -1 27 -10 30 -21 2 -10 3 -17 0
-14 -3 2 -25 0 -51 -4 -30 -6 -50 -5 -59 2 -16 13 -71 20 -154 20 -91 0 -90 0
-90 -12 0 -6 7 -9 15 -5 8 3 15 0 15 -7 0 -7 3 -8 8 -2 8 12 62 15 62 3 0 -4
12 -8 27 -8 45 0 17 -12 -46 -19 -34 -4 -61 -4 -61 1 0 13 -15 9 -35 -10 -19
-17 -20 -17 -42 8 -18 20 -24 22 -32 11 -10 -16 -46 -7 -36 9 4 6 -19 8 -62 6
-37 -2 -83 -4 -101 -5 -29 -1 -32 -4 -27 -21 5 -14 2 -20 -9 -20 -9 0 -16 -9
-16 -20 0 -11 5 -20 10 -20 6 0 10 -4 10 -10 0 -15 -30 -12 -31 3 0 6 -4 3 -9
-8 -7 -17 -9 -17 -9 -2 -1 21 -30 22 -56 3 -18 -13 -16 -15 25 -26 26 -7 39
-15 30 -18 -8 -3 -18 -10 -22 -16 -5 -7 -8 -4 -8 7 0 10 -7 17 -17 17 -15 0
-16 -2 -3 -10 8 -5 10 -10 4 -10 -5 0 -15 5 -22 12 -9 9 -12 8 -12 -5 0 -13
-9 -17 -36 -17 -21 0 -33 4 -29 10 3 5 -1 10 -9 10 -23 0 -19 -12 10 -34 21
-15 31 -16 49 -8 18 8 25 8 29 -1 3 -9 8 -8 16 3 9 12 13 12 17 2 4 -10 80
-13 374 -11 215 0 367 5 363 10 -3 5 9 9 25 9 17 0 31 -4 31 -10 0 -6 351 -10
980 -10 l980 0 0 415 0 415 -208 3 -207 2 208 3 207 2 0 344 c0 266 -3 345
-12 349 -10 4 -10 7 0 18 7 7 12 38 12 71 l0 58 -335 0 c-209 0 -335 4 -335
10 0 9 42 60 83 102 9 10 17 26 17 36 -1 20 -24 54 -33 46 -9 -9 -29 35 -21
48 5 7 3 8 -6 3 -10 -6 -12 -4 -7 9 4 10 3 15 -3 11 -5 -3 -21 17 -35 44 -14
28 -48 89 -75 135 -49 82 -60 116 -40 116 5 0 17 11 25 24 23 35 6 62 -43 70
l-40 6 0 822 c-1 453 -1 910 -2 1016 l0 192 -158 0 -158 0 3 -122 c7 -248 8
-1917 1 -1923 -4 -4 -46 -4 -92 0 -79 6 -85 8 -76 25 15 28 12 40 -12 50 l-23
9 23 7 c16 4 21 12 17 24 -4 13 3 19 27 26 23 7 33 16 33 29 0 18 -6 19 -80
16 -44 -1 -95 -9 -114 -17 -37 -15 -161 -18 -229 -5 -48 9 -85 4 -76 -10 3 -5
10 -7 15 -4 14 9 11 0 -12 -45 -13 -25 -28 -40 -40 -40 -10 0 -42 -9 -70 -20
l-52 -19 6 44 6 43 -60 1 c-56 0 -63 -3 -87 -30 -35 -42 -85 -72 -162 -97 -51
-16 -197 -52 -212 -52 -7 0 -2 906 5 917 4 6 3 14 -3 18 -12 7 -11 323 1 346
4 9 5 20 1 25 -4 5 -5 77 -1 159 4 83 7 230 8 327 0 97 4 179 9 182 6 4 505
-39 539 -46 8 -2 13 -125 17 -458 9 -658 14 -786 36 -824 12 -22 24 -30 39
-28 21 2 21 1 6 -14 -12 -13 -13 -20 -5 -28 8 -8 15 -6 26 9 17 22 11 80 -10
105 -28 32 -30 43 -8 38 24 -7 28 2 28 62 l-1 45 -37 -1 c-21 -1 -38 2 -38 6
0 5 17 12 38 17 37 9 37 9 40 66 3 64 -3 69 -50 36 -16 -12 -31 -19 -34 -17
-8 9 8 38 21 38 6 0 28 15 47 34 33 32 35 38 31 80 -5 43 -4 46 18 46 13 1 38
7 54 14 l30 14 -28 11 c-16 6 -39 8 -51 5 -19 -4 -24 -1 -28 19 -7 35 8 67 32
67 11 0 23 -7 26 -15 4 -8 16 -15 28 -15 18 1 19 2 5 13 -30 24 -30 48 1 113
33 71 34 74 20 74 -5 0 -10 -7 -10 -15 0 -8 -7 -15 -15 -15 -8 0 -24 -13 -37
-30 -27 -37 -33 -37 -48 -1 -8 20 -9 51 -4 98 5 48 9 62 15 48 4 -11 8 -15 8
-9 1 6 14 27 31 45 16 19 30 40 30 47 0 6 6 12 14 12 11 0 26 20 26 36 0 2
-14 11 -30 19 -19 10 -28 20 -23 28 4 7 0 6 -10 -2 -10 -8 -21 -10 -25 -6 -4
4 -1 10 6 12 6 3 12 9 12 14 0 6 -4 8 -9 5 -5 -3 -12 1 -15 10 -9 22 -8 24 9
24 8 0 15 7 15 15 0 8 -7 15 -16 15 -11 0 -14 5 -10 16 3 9 6 23 6 32 1 16 2
16 14 0 7 -10 16 -15 19 -11 4 3 16 -2 27 -12 18 -17 20 -17 26 -1 4 12 -4 28
-25 50 -17 17 -31 35 -31 39 0 11 78 8 86 -4 3 -6 6 -60 5 -119 -1 -72 2 -116
10 -129 10 -15 10 -22 1 -34 -10 -11 -11 -60 -7 -196 5 -126 3 -186 -4 -195
-11 -13 -5 -46 8 -46 3 0 7 -66 7 -148 1 -81 3 -288 4 -460 l3 -312 31 -8 31
-8 7 90 c3 50 9 278 12 506 8 684 17 1124 22 1139 3 10 21 12 85 6 128 -11
162 -11 166 2 3 7 -8 11 -31 9 -34 -3 -59 5 -57 18 1 3 -2 7 -6 8 -22 7 -53
45 -53 65 0 22 -3 24 -47 21 -45 -3 -48 -5 -51 -33 -5 -37 -16 -52 -46 -57
-17 -3 -23 -1 -19 8 6 15 -25 13 -35 -3 -9 -14 -60 -14 -69 0 -4 6 0 8 10 4
16 -6 22 4 18 27 -1 4 3 13 8 20 5 6 7 16 3 21 -10 14 -56 20 -48 7 4 -6 2
-13 -3 -17 -6 -3 -7 -13 -4 -22 5 -12 3 -14 -6 -8 -10 5 -11 2 -6 -14 4 -12 2
-21 -4 -21 -6 0 -11 6 -11 13 0 9 -3 8 -9 -2 -7 -10 -13 -11 -30 -2 -12 7 -26
9 -31 6 -6 -3 -10 1 -10 9 0 36 -23 66 -51 66 -26 0 -28 -2 -19 -26 13 -34 13
-37 -5 -30 -8 3 -15 0 -15 -5 0 -6 9 -9 19 -6 10 2 25 1 32 -4 10 -6 6 -9 -13
-9 -47 0 -57 9 -51 43 5 31 3 32 -31 34 -28 2 -36 -1 -36 -14 0 -41 -50 -61
-72 -29 -5 7 -8 7 -8 -2 0 -10 -24 -11 -107 -7 -125 7 -295 22 -403 37 -111
14 -1233 20 -1197 5 22 -9 27 -17 27 -44 0 -38 -2 -39 -93 -48 -37 -4 -65 -11
-61 -16 8 -13 75 -42 99 -43 11 -1 25 -13 32 -27 18 -37 25 -289 27 -914 l1
-549 -62 -21 c-104 -34 -194 -97 -232 -160 -30 -51 -8 -43 55 20 31 31 60 53
66 49 6 -4 8 -3 5 3 -4 6 19 22 53 37 50 23 78 28 190 33 98 5 134 3 139 -6 6
-8 15 -9 34 -2 16 6 38 7 57 1 46 -13 90 -34 90 -42 0 -4 6 -5 14 -2 8 3 17 0
22 -7 5 -8 3 -10 -6 -4 -9 5 -11 4 -6 -4 4 -6 12 -9 17 -5 16 9 228 -140 277
-195 37 -42 65 -101 50 -106 -7 -3 -32 -11 -56 -19 l-42 -15 -62 40 c-34 22
-73 42 -85 45 -23 6 -129 -3 -345 -29 l-107 -13 23 40 c13 23 35 62 49 87 37
66 25 73 -82 50 l-84 -18 -76 -81 -76 -80 -147 2 c-166 1 -190 9 -136 46 18
13 45 35 60 48 15 14 31 22 35 19 3 -4 16 -1 27 6 12 8 65 28 119 46 53 18 97
37 97 42 0 5 -2 9 -4 9 -20 0 -157 -33 -181 -44 -41 -18 -85 -28 -85 -19 0 5
4 15 10 23 5 8 5 19 1 25 -5 5 -8 21 -7 35 1 14 -4 36 -11 50 -7 13 -10 35 -6
48 4 18 1 24 -16 29 -16 4 -21 13 -21 39 0 43 8 47 63 30 45 -13 75 -8 63 12
-4 6 2 16 13 21 10 6 23 23 29 39 6 19 21 33 43 41 69 25 84 36 87 64 3 21 -2
29 -22 39 -28 12 -38 9 -101 -32 -26 -16 -35 -17 -67 -7 -31 10 -37 17 -42 47
-16 102 92 255 212 299 72 26 82 41 82 127 0 55 -16 100 -44 123 -19 16 -63
-5 -98 -48 -27 -31 -89 -184 -109 -266 -7 -27 -25 -73 -41 -101 -15 -28 -28
-63 -28 -79 0 -29 -14 -82 -34 -124 l-11 -23 -6 23 c-4 13 -7 255 -8 537 -1
503 -1 512 -20 493 -15 -15 -19 -33 -18 -80 0 -34 4 -58 9 -55 5 4 8 -7 6 -22
-2 -20 -9 -30 -24 -32 -20 -3 -20 2 -21 113 -1 79 2 113 9 109 7 -4 8 -2 4 5
-4 7 -10 59 -13 117 -4 79 -3 104 7 104 12 0 10 46 -6 143 -6 36 -7 37 -50 37
l-43 0 4 -497 c3 -274 7 -599 9 -723 2 -124 1 -261 -3 -305 -4 -47 -4 -83 2
-86 5 -4 4 -9 -2 -13 -6 -4 -9 -12 -6 -17 4 -5 1 -9 -4 -9 -6 0 -11 -9 -11
-21 0 -25 -36 -79 -53 -79 -8 0 -11 13 -9 38 3 29 -6 55 -38 117 -42 80 -66
115 -81 115 -17 0 -38 -32 -44 -69 -4 -26 -15 -45 -31 -56 -21 -14 -24 -23
-24 -78 0 -35 7 -87 16 -116 15 -53 15 -53 -10 -80 -14 -15 -26 -33 -26 -40 0
-7 -14 -29 -30 -48 -17 -19 -28 -38 -25 -44 4 -5 1 -9 -4 -9 -6 0 -11 -5 -11
-12 0 -6 -7 -20 -17 -30 -9 -10 -13 -21 -9 -25 4 -5 12 0 17 10 6 9 17 17 26
17 13 0 14 -2 2 -17 -13 -15 -12 -15 9 -4 38 20 27 -23 -18 -70 -43 -45 -53
-91 -24 -107 14 -8 15 -14 4 -48 -18 -56 -27 -61 -29 -17 -1 21 -3 56 -4 78
-2 29 3 47 18 63 l20 24 -32 -18 c-17 -10 -35 -16 -38 -12 -4 4 1 30 10 59 16
47 17 80 10 338 -11 408 -12 1469 -1 1644 l9 147 -53 0 c-52 0 -52 0 -46 -27
11 -48 17 -1051 10 -1682 l-7 -603 -49 4 c-39 4 -48 2 -44 -9 3 -8 1 -11 -4
-8 -6 3 -10 -5 -10 -19 0 -14 -4 -26 -9 -26 -11 0 -20 906 -17 1718 l3 652
-204 0 -203 0 0 -1251 0 -1251 -27 7 c-16 3 -202 9 -415 12 -214 3 -388 9
-388 14 0 5 -17 8 -37 8 l-38 -2 35 -7 c19 -3 -75 -9 -210 -11 -135 -2 -255
-1 -268 3 -15 5 -22 14 -20 26 3 14 17 17 98 20 52 1 101 5 109 7 8 3 179 8
380 10 572 7 771 16 771 35 0 5 -15 10 -32 12 -27 2 -36 10 -50 40 -16 33 -40
61 -37 41 5 -31 -30 -48 -47 -22 -4 8 -9 7 -14 -2 -17 -26 -38 10 -44 74 -7
79 -11 107 -21 135 -13 38 -25 24 -26 -30 -1 -29 -4 -64 -8 -78 -6 -23 -8 -20
-19 22 -7 26 -12 85 -12 132 0 60 -5 96 -17 122 -17 34 -17 36 0 45 14 8 17
24 17 87 0 42 -4 83 -8 89 -5 7 -5 37 -2 67 6 53 5 54 -17 45 -17 -6 -21 -5
-16 6 3 8 12 15 20 15 8 0 17 9 20 20 9 33 32 23 39 -17 4 -21 12 -42 18 -46
8 -6 7 -10 -1 -14 -18 -7 -16 -43 2 -43 10 0 15 11 16 38 1 20 3 56 4 80 3 36
0 42 -16 42 -27 0 -24 17 5 24 23 6 23 6 23 148 -1 167 10 513 19 578 7 54 7
110 1 210 -3 41 -2 96 2 122 5 27 4 51 -2 57 -5 5 -5 11 2 15 6 4 11 20 11 37
0 34 4 35 32 9 12 -11 24 -20 27 -20 3 0 5 47 4 105 -1 61 2 105 8 105 5 0 9
6 9 14 0 7 10 20 22 28 15 10 17 15 7 16 -8 1 -66 4 -129 7 -63 3 -144 8 -178
11 l-64 6 23 24 22 24 -542 0 -543 0 6 -122 c4 -68 7 -421 9 -785 1 -502 -1
-665 -10 -674 -9 -9 -13 -5 -18 17 -4 16 -10 38 -14 49 -7 18 -10 15 -25 -19
-14 -34 -15 -48 -5 -95 14 -64 13 -174 -1 -179 -6 -2 -6 -11 1 -23 6 -12 8
-42 4 -73 -4 -33 -1 -97 9 -166 11 -73 14 -116 7 -124 -5 -6 -11 -29 -13 -51
l-3 -40 -45 -1 c-25 0 -55 6 -68 13 -19 12 -23 12 -28 -2 -9 -22 -20 -19 -29
8 l-8 22 -4 -22 c-2 -12 -10 -24 -18 -26 -21 -9 -57 4 -51 19 3 7 -3 18 -12
26 -13 11 -14 11 -8 -1 9 -14 -8 -31 -33 -31 -11 0 -11 3 -1 15 10 12 10 15
-2 15 -8 0 -19 -5 -26 -12 -9 -9 -15 -9 -24 0 -8 8 -39 9 -103 5 -64 -4 -94
-2 -99 6 -4 6 -16 11 -26 11 -12 0 -17 5 -14 13 2 7 -9 17 -27 24 -37 14 -55
8 -38 -13 7 -9 8 -14 1 -14 -6 0 -14 5 -17 10 -3 6 -14 9 -23 9 -15 -1 -15 -2
-1 -6 24 -6 12 -43 -15 -45 -11 0 -27 -1 -33 -1 -7 1 -13 -3 -13 -7 0 -4 -27
-10 -61 -13 -45 -5 -68 -3 -91 9 -24 12 -32 13 -38 4 -6 -9 -29 -11 -86 -6
-44 4 -97 8 -119 9 -28 1 -40 7 -40 17 0 11 -16 17 -55 22 -87 10 -198 9 -205
-2 -4 -6 -11 -8 -16 -5 -5 4 -12 -1 -15 -9 -3 -9 -10 -16 -16 -16 -5 0 -7 4
-4 8 2 4 1 14 -3 21 -11 17 -64 3 -57 -15 4 -9 -2 -14 -17 -15 -12 0 -33 -2
-46 -3 -13 -2 -32 5 -42 15 -10 10 -26 16 -34 13 -12 -5 -9 -12 17 -30 21 -16
26 -24 16 -24 -9 0 -20 5 -23 10 -3 6 -14 10 -23 10 -10 0 -23 9 -30 20 -12
20 -62 29 -62 11 0 -5 -17 -11 -39 -13 -26 -2 -37 0 -34 8 6 17 -26 25 -50 12
-17 -9 -19 -12 -7 -16 33 -11 52 -62 23 -62 -8 0 -11 -4 -8 -10 3 -6 -4 -10
-17 -9 -13 0 -17 3 -11 6 35 14 -10 76 -48 66 l-23 -6 24 -9 c19 -7 21 -11 11
-17 -7 -5 -10 -14 -6 -21 5 -8 -1 -11 -20 -8 -35 4 -57 34 -35 48 13 8 13 10
-1 10 -9 0 -23 -14 -31 -30 -14 -29 -15 -21 -22 132 -3 90 -9 527 -12 971 l-7
809 204 -7 c112 -4 274 -10 359 -14 l155 -6 3 -173 2 -174 -352 5 c-208 3
-310 2 -248 -3 58 -4 173 -8 255 -9 83 -1 194 -4 248 -8 l97 -6 0 -103 0 -103
-347 4 c-217 2 -318 1 -268 -5 44 -4 161 -9 260 -11 99 -2 219 -5 268 -7 l87
-3 2 -87 2 -87 5 85 6 85 300 -3 c165 -1 366 -5 448 -8 95 -4 147 -3 147 4 0
6 -125 12 -337 17 -186 4 -387 10 -448 14 l-110 6 0 100 0 100 55 -1 c30 0
237 -3 460 -6 458 -6 427 -2 -130 15 l-385 12 -3 169 c-1 96 1 172 7 175 5 3
242 -1 526 -9 491 -14 517 -16 531 -34 12 -17 14 -18 14 -3 0 9 -5 17 -11 17
-6 0 -9 7 -6 14 4 10 1 13 -8 10 -15 -6 -1022 24 -1042 31 -10 3 -13 46 -13
166 l0 162 198 -7 c391 -13 587 -15 472 -6 -58 4 -224 11 -370 15 -146 3 -276
8 -290 10 l-25 3 3 -170 3 -170 -353 7 c-194 4 -357 11 -362 15 -4 4 -6 87 -5
184 l4 176 -132 0 -131 0 -1 -1072 c-1 -590 -6 -1093 -10 -1118 -6 -30 -9 -36
-10 -18 -1 28 -17 46 -29 33 -4 -4 -1 -10 6 -12 6 -3 12 -14 11 -26 0 -21 -1
-21 -9 -2 -10 22 -13 13 -10 -27 1 -24 -2 -28 -24 -28 -14 0 -26 -6 -26 -13 0
-7 -9 -18 -20 -25 -11 -7 -20 -18 -20 -26 0 -10 -14 -14 -50 -14 -28 -1 -55
-4 -60 -7 -6 -3 -10 -2 -10 4 0 7 -23 8 -64 4 -42 -4 -66 -2 -70 6 -5 7 -13 8
-24 2 -25 -12 -101 -23 -82 -11 12 8 11 10 -7 10 -12 0 -24 8 -27 18 -11 38
-16 245 -21 857 -3 352 -8 657 -12 677 -3 20 -3 48 1 62 l6 24 272 -3 273 -3
-273 10 c-265 10 -272 11 -278 32 -2 11 -3 89 -2 171 l3 150 280 -2 c194 -1
255 1 200 7 -44 4 -167 9 -272 10 -113 1 -195 6 -199 11 -3 6 -5 80 -5 165 l2
154 -61 0 -60 0 0 -154z m6646 94 c107 -11 232 -23 277 -25 381 -25 523 -37
536 -45 16 -10 27 -1215 11 -1225 -7 -4 -8 -11 -2 -18 6 -7 7 -153 3 -375 -4
-239 -3 -362 4 -362 6 0 3 -5 -6 -10 -9 -5 -60 -15 -113 -21 -150 -18 -215 11
-270 118 -42 82 -196 210 -377 312 -55 31 -75 35 -272 57 l-48 6 7 91 c7 112
8 117 33 117 11 0 22 9 26 19 3 10 21 29 40 42 32 22 44 39 29 39 -4 0 -28
-15 -55 -34 -61 -45 -71 -35 -67 66 l3 73 45 6 c47 5 39 16 -15 21 l-30 3 -3
74 c-3 85 2 107 20 91 36 -30 103 -68 112 -63 5 4 -12 25 -38 48 -43 37 -47
44 -37 63 16 29 14 36 -5 18 -29 -29 -44 -20 -44 28 0 49 10 56 88 56 29 0 42
4 42 14 0 15 30 26 74 26 24 0 26 2 16 15 -12 15 -12 355 1 355 11 0 19 -129
19 -311 0 -144 3 -179 15 -189 12 -10 16 -10 19 1 3 8 7 138 11 289 7 298 11
404 20 521 4 56 2 79 -8 87 -9 8 -43 8 -112 2 -55 -4 -122 -8 -150 -7 -44 2
-50 5 -53 25 -4 28 0 28 254 2z m-5759 -142 c-3 -7 -5 -2 -5 12 0 14 2 19 5
13 2 -7 2 -19 0 -25z m5603 13 c0 -5 9 -11 20 -14 17 -4 20 -14 20 -69 0 -68
0 -69 -66 -60 -18 3 -26 33 -13 48 11 13 19 44 22 87 1 17 17 25 17 8z m-3184
-36 c-14 -14 -16 -14 -16 -2 0 9 6 17 13 20 19 7 21 -1 3 -18z m-21 -35 c3 -5
1 -10 -4 -10 -6 0 -11 5 -11 10 0 6 2 10 4 10 3 0 8 -4 11 -10z m4965 -32 c0
-5 -4 -8 -10 -8 -5 0 -10 10 -10 23 0 18 2 19 10 7 5 -8 10 -18 10 -22z
m-4850 12 c0 -5 -4 -10 -9 -10 -6 0 -13 5 -16 10 -3 6 1 10 9 10 9 0 16 -4 16
-10z m-103 -16 c-3 -3 -12 -4 -19 -1 -8 3 -5 6 6 6 11 1 17 -2 13 -5z m133 -4
c0 -5 -10 -10 -22 -9 -22 0 -22 1 -3 9 11 5 21 9 23 9 1 1 2 -3 2 -9z m-55
-30 c3 -5 1 -10 -4 -10 -6 0 -11 5 -11 10 0 6 2 10 4 10 3 0 8 -4 11 -10z
m4875 -21 c0 -5 -4 -9 -10 -9 -5 0 -10 7 -10 16 0 8 5 12 10 9 6 -3 10 -10 10
-16z m-4830 -18 c25 -7 54 -19 65 -27 16 -12 18 -18 7 -34 -9 -14 -9 -20 -1
-20 6 0 9 -9 6 -20 -3 -11 -1 -23 5 -26 5 -3 6 -19 3 -34 -3 -15 -2 -31 4 -34
6 -4 6 -18 1 -36 -9 -32 -9 -32 45 -34 23 -1 31 -6 33 -23 4 -27 22 -31 22 -5
0 25 19 42 47 42 29 0 30 18 1 30 l-23 9 23 0 c12 1 25 1 30 1 4 1 10 -21 13
-47 6 -43 4 -51 -18 -70 -23 -22 -24 -23 -3 -23 12 0 30 -5 41 -10 14 -8 28
-7 54 6 41 19 44 31 13 44 -15 5 -17 9 -7 9 9 1 21 11 28 24 11 20 61 35 61
18 0 -4 11 -13 25 -19 26 -12 36 -38 10 -29 -20 8 -28 -8 -11 -22 9 -7 17 -8
20 -2 3 5 15 7 25 4 10 -3 22 0 25 6 4 6 1 11 -7 11 -8 0 -17 9 -20 20 -4 17
-2 20 15 14 14 -4 18 -3 13 6 -4 7 -17 9 -32 6 -25 -7 -53 12 -53 35 0 8 -4 8
-13 1 -8 -7 -18 -7 -27 -2 -15 9 -9 22 13 27 72 17 68 17 58 -10 -12 -30 -9
-33 37 -35 30 -2 37 4 33 34 -1 7 9 9 24 6 32 -6 43 -22 16 -22 -14 0 -21 -6
-21 -20 0 -12 7 -20 18 -20 14 0 15 -2 2 -10 -8 -5 -11 -12 -7 -16 4 -4 13 -2
19 4 16 16 51 15 45 0 -2 -7 -11 -12 -20 -10 -19 3 -57 -27 -57 -45 0 -8 12
-13 30 -13 17 0 30 5 30 10 0 6 7 10 15 10 8 0 15 5 15 10 0 15 19 12 36 -4
11 -11 11 -16 1 -20 -6 -4 -2 -4 11 -2 15 3 22 -1 22 -11 0 -10 -5 -13 -17 -8
-10 4 -30 11 -45 15 -35 11 -38 -7 -3 -20 14 -5 25 -15 25 -21 0 -7 11 -9 30
-5 27 5 30 3 30 -22 0 -15 -4 -42 -9 -60 -7 -24 -7 -34 2 -38 10 -3 13 -106
14 -450 1 -246 -2 -457 -7 -470 -6 -14 -6 -26 0 -29 11 -7 12 -391 1 -440 -5
-24 -11 -30 -31 -28 -14 0 -65 3 -113 5 -49 3 -92 9 -95 14 -4 7 -34 8 -77 4
-38 -4 -74 -4 -80 0 -12 9 -128 5 -143 -4 -5 -3 -15 1 -22 9 -19 22 -55 19
-146 -15 -11 -4 -28 -4 -36 1 -11 6 -21 4 -32 -6 -17 -17 -42 -20 -51 -5 -4 6
-12 7 -18 3 -7 -4 -27 -9 -46 -10 l-34 -2 6 927 c4 510 7 953 7 984 l0 57 53
-3 c28 -2 72 -9 97 -15z m479 -15 c-2 -2 -14 -9 -26 -15 -19 -10 -23 -9 -23 4
0 10 9 15 27 15 14 0 24 -2 22 -4z m2622 -33 c7 -16 14 -49 17 -76 4 -46 3
-49 -45 -97 -28 -28 -55 -50 -60 -50 -16 0 -19 34 -15 142 4 90 5 97 25 101
54 11 67 7 78 -20z m-2927 -18 c11 -9 14 -15 7 -15 -7 0 -19 7 -27 15 -20 19
-5 19 20 0z m296 -36 c0 -5 -10 -9 -21 -9 -18 0 -19 2 -9 15 12 15 30 12 30
-6z m-303 -15 c13 -29 9 -44 -11 -44 -8 0 -16 -13 -18 -30 -3 -16 -1 -30 4
-30 4 0 8 7 8 15 0 20 28 8 36 -17 8 -27 2 -30 -38 -23 -37 7 -36 6 -30 78 1
9 9 17 18 17 12 0 15 7 12 30 -6 37 3 39 19 4z m115 -21 c2 -10 -4 -27 -14
-37 -18 -20 -18 -20 -33 0 -20 26 -19 33 8 44 32 13 35 12 39 -7z m136 -36 c2
-10 -2 -16 -10 -15 -8 2 -12 -5 -11 -19 2 -16 -2 -21 -12 -17 -17 7 -20 34 -4
34 6 0 8 9 4 21 -6 17 -3 20 11 17 11 -2 20 -11 22 -21z m5182 8 c0 -10 10
-15 29 -15 36 0 50 -30 31 -66 -11 -19 -11 -26 0 -39 8 -10 9 -15 1 -15 -6 0
-11 5 -11 11 0 7 -12 9 -31 7 -20 -3 -33 0 -36 9 -7 19 28 44 44 32 8 -7 10
-5 6 10 -8 32 -31 47 -39 26 -5 -13 -9 -14 -15 -3 -14 22 -10 58 6 58 8 0 15
-7 15 -15z m-8129 -148 c-17 -17 -24 -1 -9 22 11 18 11 23 0 30 -7 4 -11 14
-8 22 2 8 8 28 13 44 6 25 8 18 11 -39 2 -38 -2 -74 -7 -79z m2749 133 c0 -5
-5 -10 -11 -10 -5 0 -7 5 -4 10 3 6 8 10 11 10 2 0 4 -4 4 -10z m2903 -121
c-1 -66 -10 -84 -40 -75 -16 5 -43 43 -43 61 0 10 73 85 78 80 3 -3 5 -32 5
-66z m-2453 51 c0 -5 -7 -10 -15 -10 -8 0 -15 5 -15 10 0 6 7 10 15 10 8 0 15
-4 15 -10z m1731 -72 c5 -224 3 -460 -4 -465 -4 -2 -3 -11 3 -18 14 -16 10
-97 -5 -107 -7 -5 -6 -11 1 -15 6 -5 11 -36 11 -70 0 -60 -1 -61 -26 -58 l-26
2 0 204 c0 125 4 207 10 212 6 6 6 10 -2 14 -10 3 -13 48 -13 174 l0 169 25 0
c23 0 25 -4 26 -42z m-1661 2 c0 -5 -4 -10 -10 -10 -5 0 -10 5 -10 10 0 6 5
10 10 10 6 0 10 -4 10 -10z m4907 -5 c12 -3 25 -15 28 -26 9 -29 2 -32 -21
-10 -12 10 -30 22 -42 25 -26 9 -30 30 -4 22 9 -2 27 -7 39 -11z m-8171 -81
c-3 -8 0 -25 6 -38 12 -29 2 -72 -11 -46 -13 24 -20 89 -11 95 5 3 7 13 4 23
-5 15 -4 15 6 -1 6 -10 9 -25 6 -33z m5573 21 c29 -15 41 -33 41 -63 0 -35
-16 -45 -59 -37 l-41 7 0 47 c0 66 9 72 59 46z m2611 -5 c0 -5 -5 -10 -11 -10
-5 0 -7 5 -4 10 3 6 8 10 11 10 2 0 4 -4 4 -10z m10 -110 c10 0 11 -3 4 -8 -6
-4 -14 -22 -17 -39 -5 -25 -3 -33 8 -33 8 0 15 -7 15 -16 0 -11 -6 -14 -20 -9
-22 7 -23 5 -14 -19 3 -8 12 -12 20 -9 10 4 14 -3 14 -25 0 -37 -9 -64 -20
-57 -12 7 -23 -13 -14 -26 4 -8 9 -7 15 2 4 7 11 10 16 6 4 -5 -3 -16 -16 -26
-13 -10 -21 -23 -17 -29 3 -6 1 -14 -5 -18 -15 -9 -31 18 -16 28 8 5 8 11 2
16 -5 4 -10 29 -10 56 0 31 -5 51 -12 53 -9 3 -13 -7 -13 -31 0 -19 -4 -37 -9
-41 -6 -3 -9 42 -9 109 0 109 1 115 22 119 11 3 30 3 41 1 11 -2 27 -4 35 -4z
m-3883 -202 c-3 -8 -6 -5 -6 6 -1 11 2 17 5 13 3 -3 4 -12 1 -19z m-4307 -17
c0 -6 -4 -13 -10 -16 -5 -3 -10 -15 -10 -26 0 -11 -4 -17 -10 -14 -11 7 -14
48 -3 58 10 10 33 8 33 -2z m4312 -23 c-7 -7 -13 -21 -13 -32 -1 -17 -2 -17
-6 -4 -5 19 15 63 25 54 3 -4 0 -12 -6 -18z m3808 -54 c0 -17 -22 -14 -28 4
-2 7 3 12 12 12 9 0 16 -7 16 -16z m-8140 -24 c0 -5 -2 -10 -4 -10 -3 0 -8 5
-11 10 -3 6 -1 10 4 10 6 0 11 -4 11 -10z m8147 -6 c-3 -3 -12 -4 -19 -1 -8 3
-5 6 6 6 11 1 17 -2 13 -5z m33 -35 c0 -6 6 -9 14 -6 19 7 33 -92 18 -119 -7
-12 -7 -25 0 -37 10 -19 4 -48 -9 -46 -27 5 -35 -1 -23 -16 16 -20 5 -32 -14
-16 -10 8 -16 9 -21 1 -10 -16 5 -31 26 -25 17 6 19 1 19 -35 0 -37 -2 -40
-15 -26 -8 8 -15 20 -15 26 0 6 -6 10 -12 7 -7 -2 -13 -11 -13 -20 0 -8 -4
-19 -8 -23 -7 -8 -11 23 -7 65 1 13 -3 27 -9 30 -15 10 -2 121 15 121 7 0 15
9 19 19 3 11 12 22 20 25 20 7 19 36 0 36 -8 0 -15 -9 -15 -20 0 -11 -4 -20
-10 -20 -5 0 -10 -8 -10 -17 0 -13 -3 -14 -12 -5 -13 13 4 62 22 62 5 0 10 8
10 18 0 10 3 22 7 25 10 11 23 8 23 -4z m-2930 -209 c0 -5 -4 -10 -10 -10 -5
0 -10 5 -10 10 0 6 5 10 10 10 6 0 10 -4 10 -10z m-630 -170 c0 -5 -2 -10 -4
-10 -3 0 -8 5 -11 10 -3 6 -1 10 4 10 6 0 11 -4 11 -10z m340 -27 c-1 -18 -18
-35 -24 -24 -4 6 -4 16 -1 21 7 12 25 13 25 3z m-52 -54 c-12 -35 -2 -52 17
-26 10 14 18 16 39 7 30 -11 35 -20 7 -13 -25 6 -22 -24 3 -43 24 -17 10 -37
-19 -30 -18 5 -25 1 -31 -16 -17 -55 -96 -206 -122 -233 -59 -63 -66 -63 -35
0 100 199 125 257 114 268 -8 8 -11 8 -11 -1 0 -16 -11 -15 -33 2 -16 12 -16
17 -5 35 7 12 19 21 26 21 7 0 11 4 8 9 -7 12 33 63 44 56 5 -3 4 -19 -2 -36z
m-308 -175 c0 -8 -4 -12 -10 -9 -5 3 -10 10 -10 16 0 5 5 9 10 9 6 0 10 -7 10
-16z m20 -50 c0 -8 -4 -14 -10 -14 -5 0 -10 9 -10 21 0 11 5 17 10 14 6 -3 10
-13 10 -21z m480 1 c0 -2 -10 -10 -22 -16 -21 -11 -22 -11 -9 4 13 16 31 23
31 12z m-330 -72 c0 -5 -5 -15 -10 -23 -8 -12 -10 -11 -10 8 0 12 5 22 10 22
6 0 10 -3 10 -7z m2510 -68 c-24 -25 -67 -62 -95 -82 -34 -25 -72 -69 -111
-126 -61 -92 -69 -99 -240 -205 l-80 -50 -80 8 c-94 10 -185 29 -198 41 -6 5
9 37 37 77 39 60 51 70 83 76 20 4 115 30 211 57 96 27 180 46 186 43 7 -4 9
-4 5 1 -5 5 9 19 30 33 20 14 53 39 72 57 51 46 88 70 150 93 77 29 80 28 30
-23z m-2770 -6 c0 -6 -4 -7 -10 -4 -5 3 -10 11 -10 16 0 6 5 7 10 4 6 -3 10
-11 10 -16z m-20 -79 c0 -5 -5 -10 -11 -10 -5 0 -7 5 -4 10 3 6 8 10 11 10 2
0 4 -4 4 -10z m-34 -35 c-26 -19 -42 -19 -26 0 7 8 20 15 29 15 13 -1 13 -3
-3 -15z m3474 -256 c0 -245 -1 -261 -17 -254 -10 4 -61 12 -113 18 -84 9 -107
8 -201 -11 -59 -12 -115 -25 -124 -29 -13 -4 -16 -3 -11 5 5 8 -1 12 -16 13
-21 0 -22 1 -3 8 39 15 -39 21 -295 22 -36 1 -68 0 -72 0 -5 -1 -11 -1 -15 -1
-5 -1 -18 -8 -30 -16 -20 -12 -22 -12 -17 1 3 8 22 24 41 36 21 13 32 27 29
35 -3 8 -2 14 2 14 4 0 16 7 26 15 18 13 18 16 2 39 -15 24 -15 26 8 41 21 14
63 16 273 16 136 0 258 3 270 6 34 8 16 25 -18 18 -17 -4 -35 -3 -42 2 -13 10
-93 15 -247 16 -101 0 -121 -3 -132 -17 -3 -5 -19 -10 -35 -12 l-28 -3 30 22
c42 31 55 38 205 112 74 36 149 79 165 94 57 54 73 58 328 69 l37 2 0 -261z
m-3264 209 c-35 -84 -38 -88 -62 -82 -15 4 -25 0 -33 -13 -6 -10 -11 -13 -11
-6 0 7 11 23 25 37 14 14 25 35 25 46 0 12 5 18 10 15 6 -3 10 -2 10 2 0 7 14
16 48 32 1 0 -4 -14 -12 -31z m-314 -3 c3 -14 1 -25 -3 -25 -5 0 -9 11 -9 25
0 14 2 25 4 25 2 0 6 -11 8 -25z m347 -35 c-12 -22 -25 -40 -31 -40 -5 0 0 13
11 29 12 16 21 34 21 40 0 6 4 11 10 11 5 0 0 -18 -11 -40z m-3779 14 c0 -2
-13 -4 -30 -4 -16 0 -30 4 -30 8 0 5 14 7 30 4 17 -2 30 -6 30 -8z m-524 -31
c-1 -1 -15 2 -32 6 -24 8 -25 9 -6 10 12 1 22 7 23 14 0 6 4 3 8 -8 5 -11 8
-21 7 -22z m1239 4 c15 -4 14 -5 -7 -6 -21 -1 -28 4 -28 17 0 11 3 13 8 6 4
-7 16 -14 27 -17z m200 -7 c3 -5 2 -10 -4 -10 -5 0 -13 5 -16 10 -3 6 -2 10 4
10 5 0 13 -4 16 -10z m1665 -15 c0 -18 -5 -25 -19 -25 -26 0 -36 17 -21 35 19
23 40 18 40 -10z m1390 21 c0 -5 -87 -46 -97 -46 -12 0 70 48 85 49 6 1 12 -1
12 -3z m160 -42 c0 -11 5 -14 16 -10 12 5 14 1 9 -17 -4 -12 -13 -29 -21 -37
-12 -12 -14 -12 -14 5 -1 19 -1 19 -14 3 -16 -22 -32 -23 -40 -2 -10 27 -7 36
14 29 15 -5 21 0 26 19 7 29 24 35 24 10z m-1475 -13 c7 -12 -12 -24 -25 -16
-11 7 -4 25 10 25 5 0 11 -4 15 -9z m1205 5 c0 -6 -66 -46 -76 -46 -5 0 9 11
31 25 43 26 45 27 45 21z m-4607 -13 c-7 -2 -19 -2 -25 0 -7 3 -2 5 12 5 14 0
19 -2 13 -5z m4981 -80 c-7 -84 -18 -109 -32 -73 -5 14 -6 32 -1 41 4 9 6 19
3 22 -3 3 -1 13 5 24 5 10 12 26 15 36 11 35 15 15 10 -50z m-533 17 c18 0 8
-51 -23 -115 -31 -62 -53 -80 -64 -52 -3 8 11 49 31 92 19 42 36 85 36 94 1
13 2 13 6 -1 2 -10 9 -18 14 -18z m324 11 c-13 -11 -77 -32 -82 -27 -2 2 15
11 39 19 53 19 54 19 43 8z m-665 -20 c5 -11 10 -22 10 -24 0 -2 -31 -5 -70
-6 -69 -1 -70 -1 -70 24 0 24 3 25 60 25 48 0 61 -4 70 -19z m-2085 -9 c45 -6
50 -10 50 -32 l0 -25 -275 -3 c-151 -2 -502 -5 -780 -7 -278 -2 -595 -7 -705
-11 -110 -4 -249 -3 -308 1 -103 7 -108 8 -105 29 l3 21 480 3 c321 2 481 6
486 13 4 7 166 9 512 7 396 -2 509 0 519 10 7 7 24 10 43 7 16 -4 53 -9 80
-13z m2195 3 c0 -8 -4 -15 -10 -15 -5 0 -10 7 -10 15 0 8 5 15 10 15 6 0 10
-7 10 -15z m131 3 c9 2 19 -4 22 -13 5 -12 -1 -15 -26 -14 -18 0 -41 4 -52 8
-19 8 -19 8 0 19 11 5 24 7 30 4 5 -4 17 -5 26 -4z m3781 -76 c76 -135 103
-191 96 -198 -4 -3 -41 -9 -83 -11 l-75 -5 0 152 c0 94 4 149 10 145 5 -3 29
-40 52 -83z m-8592 53 c0 -11 12 -15 45 -15 41 0 45 -2 45 -25 0 -29 29 -27
-295 -25 -128 1 -234 5 -240 11 -21 21 19 27 193 31 162 3 185 5 193 21 12 21
59 23 59 2z m4470 -29 c0 -3 -4 -8 -10 -11 -5 -3 -10 -1 -10 4 0 6 5 11 10 11
6 0 10 -2 10 -4z m270 -6 c0 -5 -5 -10 -11 -10 -5 0 -7 5 -4 10 3 6 8 10 11
10 2 0 4 -4 4 -10z m60 4 c0 -8 -19 -13 -24 -6 -3 5 1 9 9 9 8 0 15 -2 15 -3z
m30 -4 c0 -5 -2 -10 -4 -10 -3 0 -8 5 -11 10 -3 6 -1 10 4 10 6 0 11 -4 11
-10z m1497 -97 c-2 -21 -4 -4 -4 37 0 41 2 58 4 38 2 -21 2 -55 0 -75z m53 52
c0 -25 -4 -45 -10 -45 -11 0 -13 33 -4 68 10 34 14 27 14 -23z m-960 -35 c0
-16 -2 -30 -4 -30 -2 0 -6 14 -8 30 -3 17 -1 30 4 30 4 0 8 -13 8 -30z m-1392
-55 l3 -30 -118 -1 c-65 -1 -107 1 -94 5 14 4 26 12 29 19 3 9 -40 12 -182 12
-113 0 -186 4 -186 10 0 10 124 15 385 15 l160 0 3 -30z m748 23 c3 -3 -6 -28
-20 -55 -14 -26 -25 -42 -26 -35 0 7 -7 20 -15 28 -12 13 -37 15 -129 11 -63
-3 -118 -7 -124 -11 -5 -3 -12 4 -16 17 -14 53 -19 52 159 51 91 0 168 -3 171
-6z m1921 -8 c8 0 13 -6 10 -13 -5 -14 17 -39 27 -30 3 4 6 -1 6 -10 0 -9 5
-19 12 -23 7 -5 8 -2 3 7 -6 11 -5 12 6 1 11 -10 10 -16 -7 -33 l-21 -20 -31
29 c-17 16 -34 27 -37 24 -3 -3 -5 0 -5 6 0 7 -7 12 -15 12 -21 0 -19 12 7 45
12 16 24 23 26 17 2 -7 11 -12 19 -12z m-1087 -4 c0 -2 -11 -6 -25 -8 -13 -3
-22 -1 -19 3 5 9 44 13 44 5z m10 -20 c0 -3 -4 -8 -10 -11 -5 -3 -10 -1 -10 4
0 6 5 11 10 11 6 0 10 -2 10 -4z m395 -35 c0 -19 -4 -27 -12 -24 -14 6 -16 14
-7 37 10 25 19 19 19 -13z m-2715 15 c0 -9 -30 -14 -35 -6 -4 6 3 10 14 10 12
0 21 -2 21 -4z m119 -2 c17 -4 31 -10 31 -15 0 -13 -39 -11 -90 5 l-45 15 36
0 c20 1 51 -2 68 -5z m3148 -51 c-3 -10 -5 -4 -5 12 0 17 2 24 5 18 2 -7 2
-21 0 -30z m-186 10 c13 -16 12 -17 -3 -4 -10 7 -18 15 -18 17 0 8 8 3 21 -13z
m-3538 -6 c20 -1 37 0 37 3 0 5 430 5 993 0 l157 -2 0 -40 0 -41 -162 7 c-417
19 -490 20 -568 13 -19 -2 -50 1 -68 6 -48 15 -20 27 62 27 38 0 67 2 64 5 -2
3 -56 5 -118 6 -99 0 -116 -2 -127 -18 -12 -16 -29 -17 -181 -15 -195 2 -262
5 -256 11 2 2 -1 10 -7 17 -24 29 2 32 174 21z m2180 -29 c26 -18 40 -47 15
-32 -7 4 -8 3 -4 -5 4 -6 12 -9 17 -6 5 4 9 4 9 1 0 -2 2 -10 5 -18 4 -10 -12
-13 -74 -13 l-79 0 14 45 c7 25 18 46 24 48 5 2 7 8 4 14 -7 12 29 -6 69 -34z
m-2623 15 c14 -13 16 -19 7 -25 -15 -9 -33 -11 -24 -1 4 3 0 15 -10 25 -21 23
0 24 27 1z m76 6 c4 -8 9 -8 17 0 6 6 40 11 77 11 45 0 61 -3 50 -10 -8 -5
-32 -10 -52 -10 -20 0 -43 -6 -51 -14 -8 -8 -19 -11 -26 -6 -7 4 -22 5 -32 3
-12 -4 -19 0 -19 9 0 27 23 37 36 17z m5014 7 c0 -3 -4 -8 -10 -11 -5 -3 -10
-1 -10 4 0 6 5 11 10 11 6 0 10 -2 10 -4z m-3023 -25 c-10 -4 26 -17 85 -30
120 -28 128 -31 128 -41 0 -4 -38 -5 -84 -3 -56 4 -85 2 -90 -6 -5 -8 13 -11
63 -11 38 0 72 -4 75 -8 5 -9 -72 -186 -84 -190 -27 -10 -41 -34 -51 -87 -6
-33 -28 -96 -48 -140 -32 -68 -44 -83 -79 -102 l-42 -22 -5 22 c-2 12 -6 42
-8 66 -6 53 -38 91 -61 72 -9 -8 -13 -18 -9 -24 3 -5 1 -7 -5 -4 -27 17 -97
-113 -90 -169 2 -24 8 -30 37 -34 24 -3 36 -12 42 -28 8 -20 4 -25 -26 -38
-44 -18 -46 -45 -5 -86 17 -16 30 -34 30 -39 0 -6 5 -7 12 -3 6 4 8 3 5 -3 -7
-10 84 -73 107 -73 20 0 31 38 15 56 -10 13 -7 14 26 11 40 -5 55 -19 55 -54
0 -12 4 -24 9 -27 11 -7 114 18 106 26 -3 3 1 8 10 12 9 3 13 2 10 -4 -9 -15
2 -12 31 7 19 12 22 18 12 25 -9 7 -8 8 6 4 21 -7 56 19 56 42 0 8 -11 25 -25
38 -21 20 -24 27 -15 44 9 16 19 20 53 18 23 -2 45 -7 49 -13 5 -6 19 -5 39 2
40 15 42 13 29 -22 -6 -16 -9 -34 -6 -42 3 -7 2 -13 -3 -13 -5 0 -20 -17 -33
-37 -39 -59 -99 -114 -145 -135 -24 -10 -45 -19 -48 -19 -2 0 -19 -5 -37 -10
-59 -18 -165 -11 -231 15 -32 14 -64 23 -71 22 -6 -2 -8 -1 -3 2 8 4 -42 47
-56 47 -4 0 -13 9 -20 21 -29 48 -59 94 -63 94 -3 0 0 -9 6 -21 9 -15 8 -24
-1 -35 -9 -11 -8 -14 5 -14 9 0 16 -6 16 -14 0 -8 5 -16 12 -18 9 -3 9 -6 0
-12 -13 -8 -57 55 -67 97 -6 21 -4 27 10 27 12 0 15 5 10 18 -18 43 -33 126
-28 158 5 29 0 42 -26 74 l-31 39 43 6 c37 6 44 11 62 47 24 49 64 92 124 130
47 29 80 38 46 12 -20 -15 -20 -15 -1 -26 18 -10 18 -11 -5 -30 -18 -15 -19
-18 -6 -14 10 3 23 6 28 6 5 0 9 37 9 83 l0 83 44 43 c60 59 54 73 -48 112
-66 27 -96 33 -163 33 l-82 1 33 17 c59 30 178 59 261 63 44 3 81 9 83 14 2 6
11 7 19 4 15 -6 15 -7 0 -12z m418 -79 c-13 -31 -24 -50 -24 -42 0 8 8 35 19
59 11 24 19 46 16 48 -2 2 -11 -13 -21 -32 -9 -20 -19 -34 -22 -31 -4 3 4 27
17 52 22 41 25 44 32 24 5 -14 0 -39 -17 -78z m-2565 78 c8 -5 11 -12 8 -15
-4 -4 -17 0 -30 9 -24 17 -5 23 22 6z m2400 6 c0 -16 -28 -52 -38 -48 -9 3
-10 8 -3 16 7 8 4 12 -10 13 -11 1 -17 -2 -14 -7 5 -9 -34 -5 -110 11 -38 8
-38 8 13 5 28 -2 52 0 52 3 0 3 25 7 55 8 30 2 55 1 55 -1z m60 -6 c12 -8 13
-12 2 -19 -8 -4 -13 -12 -13 -17 1 -14 -32 -11 -36 4 -3 6 2 12 11 12 10 0 13
6 10 15 -7 17 4 19 26 5z m-2782 -17 c-10 -2 -26 -2 -35 0 -10 3 -2 5 17 5 19
0 27 -2 18 -5z m95 0 c-7 -2 -19 -2 -25 0 -7 3 -2 5 12 5 14 0 19 -2 13 -5z
m74 1 c-3 -3 -12 -4 -19 -1 -8 3 -5 6 6 6 11 1 17 -2 13 -5z m4677 -2 c2 -4 1
-14 -4 -22 -7 -11 -11 -11 -24 -1 -9 7 -13 17 -10 22 7 11 31 12 38 1z m1741
-20 c19 -11 19 -11 -2 -12 -28 0 -30 -21 -3 -38 17 -10 20 -10 20 3 0 25 41
34 100 22 30 -5 57 -13 60 -16 3 -3 50 -6 105 -7 55 0 159 -2 232 -4 127 -4
131 -4 111 -21 -16 -14 -33 -17 -81 -14 -127 10 -315 13 -326 5 -7 -4 -11 -13
-9 -21 2 -11 -19 -15 -102 -20 -58 -3 -98 -6 -90 -7 13 -2 13 -4 1 -11 -10 -7
-24 -3 -43 12 -27 21 -28 25 -22 82 7 64 13 83 23 68 3 -5 15 -15 26 -21z
m-2771 -34 c18 -35 21 -58 7 -42 -14 14 -42 86 -31 79 5 -3 16 -19 24 -37z
m1866 35 c-8 -3 -33 -20 -55 -37 l-39 -31 23 32 c14 18 28 30 33 27 4 -3 8 0
8 5 0 6 10 11 23 10 14 0 17 -2 7 -6z m-110 -8 c0 0 -21 -18 -47 -40 l-48 -39
35 40 c19 22 41 40 48 40 6 1 12 0 12 -1z m-2827 -17 c20 -16 13 -59 -9 -52
-8 2 -21 6 -29 9 -12 3 -13 9 -3 30 13 28 18 30 41 13z m1753 -10 c4 -6 -1
-17 -11 -25 -18 -12 -18 -13 3 -13 13 0 22 6 22 15 0 19 1 19 47 0 28 -12 50
-33 83 -83 71 -106 71 -105 61 -159 -6 -26 -12 -70 -16 -98 -7 -62 10 -40 20
25 12 83 11 82 50 58 29 -16 34 -24 29 -44 -9 -36 10 -29 29 12 17 34 42 42
42 13 1 -8 5 -21 10 -30 9 -14 19 -13 95 12 93 31 295 134 244 124 -23 -4 -35
-1 -49 15 -10 11 -28 20 -39 21 -19 0 -19 1 3 10 46 18 14 19 -40 1 -30 -11
-47 -21 -39 -24 8 -3 -6 -4 -32 -4 -27 1 -47 5 -45 11 2 5 37 20 77 32 40 12
87 28 104 36 69 31 97 39 148 41 29 2 62 6 72 11 16 7 18 5 13 -13 -6 -26 18
-56 36 -45 7 4 4 -5 -5 -20 -23 -35 -23 -40 5 -32 17 5 19 4 6 -4 -14 -9 -101
-21 -153 -22 -10 0 -15 -3 -12 -6 11 -12 -207 -122 -293 -149 l-85 -26 -17 23
c-21 28 -25 25 -34 -23 -5 -28 -4 -38 6 -38 7 0 9 -3 5 -7 -4 -4 -17 5 -30 20
-19 22 -25 25 -40 14 -16 -12 -16 -14 6 -32 21 -19 22 -19 8 -1 -13 17 -13 19
0 14 8 -2 21 -15 27 -29 7 -13 18 -23 24 -21 6 1 8 -1 5 -6 -3 -5 6 -24 19
-42 14 -19 25 -42 25 -52 0 -18 -2 -18 -32 -2 -18 9 -41 23 -50 31 -14 12 -28
13 -89 3 -72 -11 -101 -20 -64 -20 14 0 16 -3 8 -11 -8 -8 -17 -8 -31 0 -25
14 -32 14 -32 1 0 -5 11 -12 25 -16 29 -7 30 -12 9 -42 -19 -27 -28 -22 -54
28 -27 52 -26 70 3 63 22 -5 22 -5 2 11 -19 16 -18 17 25 12 26 -4 68 0 100 9
69 19 70 19 70 -2 0 -15 2 -16 10 -3 6 10 10 11 10 3 0 -7 5 -13 10 -13 6 0
10 7 10 15 0 8 -5 15 -11 15 -5 0 -7 5 -3 11 4 7 0 9 -12 6 -11 -3 -38 -9 -62
-12 -37 -6 -45 -4 -61 16 -16 20 -21 21 -34 10 -9 -7 -13 -19 -10 -27 5 -15
-13 -19 -42 -8 -15 6 -14 8 1 25 14 15 14 21 4 34 -7 8 -21 15 -32 15 -14 0
-18 5 -14 18 3 9 10 49 15 88 9 62 8 77 -10 124 -24 64 -56 111 -72 107 -11
-2 -18 39 -10 56 6 11 31 8 39 -5z m339 -8 c3 -5 1 -10 -4 -10 -6 0 -11 5 -11
10 0 6 2 10 4 10 3 0 8 -4 11 -10z m-1338 -6 c-3 -3 -12 -4 -19 -1 -8 3 -5 6
6 6 11 1 17 -2 13 -5z m568 -23 c-8 -14 -25 -14 -25 0 0 5 5 7 10 4 6 -3 10
-1 10 6 0 7 3 10 6 6 3 -3 3 -10 -1 -16z m1123 12 c-10 -2 -18 -9 -18 -14 0
-5 -15 -9 -32 -8 l-33 1 35 13 c19 7 42 13 50 13 10 0 9 -2 -2 -5z m247 -23
c10 -11 15 -20 11 -20 -4 0 -19 9 -33 20 -17 13 -20 20 -11 20 8 0 23 -9 33
-20z m496 4 c11 -14 10 -15 -11 -12 -13 1 -25 9 -28 16 -5 17 23 15 39 -4z
m-3236 -70 c-14 -31 -22 -61 -18 -67 3 -5 1 -7 -4 -4 -13 8 -26 -20 -16 -35 4
-7 1 -8 -7 -3 -10 6 -12 4 -7 -9 4 -11 3 -15 -4 -10 -8 4 -9 -1 -4 -15 4 -15
3 -21 -7 -19 -8 2 -13 -7 -13 -22 0 -18 -6 -26 -22 -28 -28 -4 -28 -4 1 49 14
24 34 69 46 99 25 65 58 120 71 120 5 0 -2 -25 -16 -56z m2709 41 c-4 -8 -10
-12 -15 -9 -11 6 -2 24 11 24 5 0 7 -7 4 -15z m-314 -2 c0 -5 -11 -8 -24 -8
-13 0 -22 3 -19 8 2 4 13 7 24 7 10 0 19 -3 19 -7z m652 -70 c7 -9 6 -15 -6
-19 -25 -9 -19 -22 8 -17 39 8 40 -15 1 -31 -20 -9 -43 -17 -52 -18 -19 -4
-27 33 -10 45 8 6 5 7 -8 4 -11 -2 -26 2 -34 10 -11 12 -9 17 10 34 14 12 33
19 46 16 12 -2 22 -1 21 2 -2 22 6 31 9 11 3 -14 9 -31 15 -37z m-2804 -3 c23
-17 42 -32 42 -35 0 -8 -50 4 -93 23 -36 14 -37 17 -21 29 24 18 25 17 72 -17z
m-263 -93 c-25 -54 -47 -97 -48 -97 -2 0 -4 14 -4 30 0 17 3 26 7 20 3 -5 24
26 45 70 21 44 40 78 42 76 2 -1 -17 -46 -42 -99z m358 73 c4 0 5 5 1 12 -4 7
-3 8 4 4 6 -4 9 -13 5 -21 -7 -19 -6 -19 -29 8 -10 12 -12 16 -4 10 8 -7 18
-13 23 -13z m87 16 c0 -11 -19 -15 -25 -6 -3 5 1 10 9 10 9 0 16 -2 16 -4z
m-283 -28 c-3 -8 -6 -5 -6 6 -1 11 2 17 5 13 3 -3 4 -12 1 -19z m1303 12 c0
-5 -7 -10 -15 -10 -8 0 -15 5 -15 10 0 6 7 10 15 10 8 0 15 -4 15 -10z m947 4
c-3 -3 -12 -4 -19 -1 -8 3 -5 6 6 6 11 1 17 -2 13 -5z m-1360 -10 c-3 -3 -12
-4 -19 -1 -8 3 -5 6 6 6 11 1 17 -2 13 -5z m2346 -11 c-7 -2 -19 -2 -25 0 -7
3 -2 5 12 5 14 0 19 -2 13 -5z m-3243 -70 c-1 -43 -3 -54 -11 -41 -8 15 -2 98
7 98 2 0 4 -26 4 -57z m1310 53 c0 -2 3 -11 6 -20 4 -11 1 -16 -10 -16 -9 0
-16 2 -16 4 0 2 -3 11 -6 20 -4 11 -1 16 10 16 9 0 16 -2 16 -4z m1713 -60
c18 -19 17 -20 -15 -32 -71 -27 -258 -94 -262 -94 -2 0 -6 9 -9 21 -3 12 -11
19 -19 16 -14 -5 -14 -10 -3 -39 5 -14 2 -18 -13 -18 -12 0 -24 -4 -27 -10 -3
-5 -14 -10 -23 -10 -9 0 -26 -13 -36 -29 -21 -31 -81 -65 -97 -56 -5 4 -16 0
-24 -9 -22 -21 -130 -86 -145 -86 -8 0 -10 8 -6 23 3 12 6 32 6 45 0 13 6 22
15 22 19 0 31 30 57 137 l19 82 54 16 c70 20 74 19 118 -10 21 -15 43 -23 49
-19 7 4 28 7 48 6 24 -2 72 12 141 41 112 47 132 48 172 3z m-2387 -38 c-14
-27 -26 -56 -26 -64 0 -8 -4 -14 -10 -14 -22 0 -1 76 34 123 31 42 32 13 2
-45z m294 52 c6 -11 8 -20 6 -20 -3 0 -10 9 -16 20 -6 11 -8 20 -6 20 3 0 10
-9 16 -20z m2330 0 c-13 -24 -52 -28 -43 -4 4 11 8 12 13 4 5 -8 11 -6 20 5
18 21 23 19 10 -5z m57 -10 c-1 -11 -7 -20 -14 -20 -11 0 -11 5 -3 20 6 11 13
20 15 20 2 0 3 -9 2 -20z m-2278 -37 c1 -21 -17 -15 -24 7 -9 27 6 50 16 24 4
-10 8 -25 8 -31z m-231 1 c-4 -3 -12 5 -18 18 -12 22 -12 22 6 6 10 -10 15
-20 12 -24z m1362 26 c18 -11 17 -12 -53 -38 -68 -25 -67 -25 -67 -12 0 8 85
58 100 59 3 1 12 -3 20 -9z m-920 -56 c0 -8 -19 -13 -24 -6 -3 5 1 9 9 9 8 0
15 -2 15 -3z m-2687 -18 c48 -1 87 2 87 6 0 4 74 8 165 8 91 0 165 -2 165 -4
0 -2 -6 -17 -12 -32 l-13 -29 -447 0 c-245 0 -444 4 -441 8 3 5 38 7 79 6 41
-1 77 1 81 4 3 4 1 7 -5 7 -7 0 -12 5 -12 10 0 6 38 10 93 11 50 1 103 5 117
9 14 4 32 6 40 3 8 -3 54 -7 103 -7z m1340 -2 c37 2 50 -10 22 -20 -8 -4 -15
-12 -15 -19 0 -24 -38 -28 -65 -7 -25 20 -24 32 3 32 9 0 12 -6 7 -17 -5 -15
-4 -16 7 -5 11 11 10 16 -4 26 -10 7 -18 17 -18 21 0 4 6 3 13 -2 6 -6 29 -10
50 -9z m74 -21 c-11 -10 -26 8 -20 23 5 15 7 14 15 -1 6 -9 7 -19 5 -22z
m-1943 18 c79 -1 46 -12 -49 -16 -51 -3 -96 -10 -109 -18 -23 -16 -140 -21
-130 -6 3 5 -18 9 -47 9 -29 0 -49 3 -46 7 7 6 88 10 232 12 39 1 55 4 46 10
-9 6 -2 8 20 6 19 -2 56 -4 83 -4z m1690 -48 c-14 -32 -30 -73 -36 -90 -10
-36 -38 -45 -38 -13 0 11 4 20 8 20 5 0 23 32 42 70 41 84 61 94 24 13z m3512
22 c-17 -49 -23 -51 -24 -5 -2 33 1 40 17 40 17 0 18 -3 7 -35z m457 -32 c31
-70 42 -113 30 -113 -5 0 -14 21 -21 46 -7 25 -21 63 -31 85 -11 21 -16 39
-11 39 4 0 19 -26 33 -57z m-6076 33 c4 -3 -8 -6 -25 -6 -17 0 -34 -4 -37 -10
-4 -6 20 -9 65 -7 38 2 70 0 70 -5 0 -4 -55 -8 -122 -8 -116 0 -155 6 -74 12
20 1 40 6 43 12 4 5 -4 7 -18 3 -13 -3 -35 -3 -49 1 -24 6 -23 7 10 12 43 7
129 5 137 -4z m4483 10 c0 -3 -4 -8 -10 -11 -5 -3 -10 -1 -10 4 0 6 5 11 10
11 6 0 10 -2 10 -4z m-4783 -12 c-3 -3 -12 -4 -19 -1 -8 3 -5 6 6 6 11 1 17
-2 13 -5z m6155 -11 c9 -10 14 -26 12 -36 -2 -14 2 -18 16 -14 13 3 21 -1 25
-13 4 -13 12 -16 27 -12 13 3 19 1 15 -5 -4 -6 0 -14 9 -17 8 -3 12 -2 9 4 -3
6 5 10 19 10 38 0 52 -34 26 -60 -22 -22 -40 -26 -40 -9 0 5 -4 8 -9 4 -6 -3
-15 3 -21 12 -8 14 -9 10 -4 -19 5 -32 3 -38 -11 -38 -9 0 -19 9 -22 21 -3 11
-11 18 -18 15 -7 -2 -17 6 -24 20 -8 19 -18 24 -50 24 -29 0 -40 4 -44 19 -2
10 -1 25 4 32 5 8 9 24 9 37 0 12 5 22 11 22 5 0 7 -6 4 -12 -3 -7 2 -3 11 10
20 27 26 27 46 5z m-7132 -9 c0 -2 -7 -4 -15 -4 -8 0 -15 4 -15 10 0 5 7 7 15
4 8 -4 15 -8 15 -10z m405 6 c4 -6 -6 -10 -22 -9 -25 0 -26 1 -8 9 11 5 21 9
22 9 1 1 5 -3 8 -9z m110 0 c-3 -5 -11 -10 -16 -10 -6 0 -7 5 -4 10 3 6 11 10
16 10 6 0 7 -4 4 -10z m1143 3 c-10 -2 -26 -2 -35 0 -10 3 -2 5 17 5 19 0 27
-2 18 -5z m-593 -12 c37 -8 35 -9 -27 -10 -40 -1 -68 3 -68 9 0 12 39 12 95 1z
m3220 -71 c5 -37 4 -52 -3 -45 -6 6 -13 37 -17 70 -8 76 10 54 20 -25z m3174
37 c-1 -31 -1 -31 -9 -7 -11 36 -11 52 0 45 6 -3 10 -21 9 -38z m-3231 27 c-6
-5 2 -47 16 -91 6 -20 4 -23 -18 -23 -19 0 -24 -4 -19 -16 5 -13 7 -13 14 -2
7 11 11 10 19 -2 5 -8 10 -20 10 -26 0 -14 -59 -24 -66 -12 -3 4 -20 7 -37 7
l-32 -2 35 -7 c21 -4 27 -8 15 -9 -11 -2 -15 -5 -7 -8 6 -2 12 -11 12 -19 0
-9 -4 -13 -9 -10 -4 3 -17 -1 -27 -9 -23 -17 -77 -19 -106 -4 -15 8 -19 8 -14
0 4 -6 2 -11 -3 -11 -6 0 -11 11 -11 25 0 22 3 24 38 21 20 -2 45 -7 55 -11 9
-4 17 -3 17 3 0 14 -26 22 -76 22 -39 0 -44 3 -44 23 0 12 -3 31 -6 42 -4 16
2 23 23 32 l28 12 -32 -4 c-24 -2 -32 1 -36 16 -3 11 0 19 6 19 7 0 4 5 -5 11
-29 17 -20 27 16 19 18 -4 39 -10 45 -14 6 -4 11 -3 11 2 0 5 14 12 30 14 17
3 30 1 30 -2 0 -4 11 -7 25 -7 14 0 25 3 25 8 0 4 8 10 18 12 25 7 66 8 60 1z
m162 -24 c-44 -37 -48 -37 -42 0 4 27 8 30 40 30 l36 0 -34 -30z m80 9 c0 -5
-4 -9 -10 -9 -5 0 -10 7 -10 16 0 8 5 12 10 9 6 -3 10 -10 10 -16z m550 12 c0
-12 -20 -25 -27 -18 -7 7 6 27 18 27 5 0 9 -4 9 -9z m331 -39 c-9 -2 -22 -11
-28 -20 -8 -9 -13 -11 -13 -4 0 7 9 17 20 24 11 7 20 20 21 28 0 10 3 8 8 -5
6 -15 4 -21 -8 -23z m2084 -27 c8 -27 11 -53 7 -57 -4 -4 -14 22 -22 58 -18
73 -8 73 15 -1z m-4835 48 c-1 -17 -26 -99 -33 -110 -6 -9 -39 -13 -105 -13
-53 0 -104 -5 -112 -10 -12 -8 -12 -10 5 -10 17 -1 18 -2 4 -10 -8 -5 -47 -7
-85 -5 -38 2 -109 4 -159 5 -96 3 -118 7 -109 21 3 5 1 9 -5 9 -5 0 -13 -4
-16 -10 -3 -5 -14 -10 -23 -9 -14 0 -13 2 3 9 15 7 9 9 -25 7 -26 -1 -44 -7
-43 -13 1 -7 -8 -9 -23 -6 -16 3 -21 7 -14 12 6 4 -25 10 -69 14 -46 4 -79 11
-76 17 7 11 -28 12 -39 2 -4 -4 -147 -9 -318 -10 -226 -2 -308 1 -300 9 9 9
230 12 357 5 17 -1 29 3 28 9 -1 7 16 10 49 8 29 -1 60 3 72 11 20 12 316 26
536 25 58 0 80 3 70 9 -28 19 3 26 138 31 76 3 172 6 215 8 42 2 77 -1 77 -5z
m1120 -83 c-1 -10 -9 -6 -25 13 -14 15 -25 40 -25 55 1 26 2 25 25 -13 14 -22
25 -47 25 -55z m70 55 c0 -5 -5 -3 -10 5 -5 8 -10 20 -10 25 0 6 5 3 10 -5 5
-8 10 -19 10 -25z m-1727 18 c-7 -2 -19 -2 -25 0 -7 3 -2 5 12 5 14 0 19 -2
13 -5z m5461 -110 c4 -61 3 -69 -4 -38 -14 64 -22 164 -11 138 6 -12 12 -57
15 -100z m-1679 80 c5 -21 1 -32 -21 -52 -15 -14 -24 -21 -20 -14 4 7 0 24 -9
37 -20 30 -11 49 17 40 14 -4 18 -2 14 5 -4 6 -3 11 2 11 6 0 13 -12 17 -27z
m-2735 2 c0 -9 -6 -12 -15 -9 -8 4 -12 10 -9 15 8 14 24 10 24 -6z m515 -5
c-3 -5 3 -13 12 -19 10 -6 12 -11 5 -11 -9 0 -9 -8 2 -35 8 -19 12 -35 9 -35
-3 0 0 -6 6 -14 9 -10 8 -15 -4 -20 -8 -3 -15 0 -16 7 -1 16 -5 34 -23 89 -14
45 -12 63 6 52 4 -3 6 -9 3 -14z m1245 10 c0 -5 -4 -10 -10 -10 -5 0 -10 5
-10 10 0 6 5 10 10 10 6 0 10 -4 10 -10z m-1044 -96 c16 -64 16 -64 6 -64 -4
0 -12 26 -19 58 -6 31 -14 66 -18 77 -6 18 -5 18 5 2 6 -9 18 -42 26 -73z
m3151 72 c4 -3 1 -6 -5 -6 -7 0 -6 -9 3 -27 12 -24 12 -29 0 -43 -8 -9 -12
-19 -9 -23 4 -4 -7 -2 -25 3 -17 5 -34 9 -36 9 -29 4 -61 51 -34 51 5 0 7 4 4
10 -12 20 19 40 58 36 21 -2 41 -6 44 -10z m430 -8 c-3 -8 -6 -5 -6 6 -1 11 2
17 5 13 3 -3 4 -12 1 -19z m-6711 -1 c4 -4 -2 -7 -14 -7 -11 0 -24 5 -27 10
-7 11 30 8 41 -3z m2426 -16 c-9 -16 -18 -28 -21 -26 -4 5 27 55 34 55 2 0 -4
-13 -13 -29z m-2589 5 c15 -5 27 -12 27 -17 0 -10 -558 -15 -1204 -11 -175 1
-322 -1 -327 -4 -5 -3 -9 -1 -9 5 0 10 72 24 106 21 10 -1 21 -2 24 -1 25 8
890 8 890 0 0 -5 12 -9 28 -8 l27 1 -25 7 c-14 4 67 9 180 10 112 1 206 3 207
5 5 5 46 1 76 -8z m291 -1 c-5 -13 8 -14 88 -12 51 2 102 1 113 -3 24 -8 9
-16 -30 -15 -16 1 -96 2 -177 3 -82 1 -148 6 -148 11 0 5 30 9 67 9 41 0 69 4
71 11 2 6 8 11 13 11 4 0 6 -7 3 -15z m2241 -47 c-19 -35 -37 -63 -41 -63 -4
0 -11 7 -17 16 -13 21 45 109 73 109 18 0 17 -6 -15 -62z m3955 52 c0 -5 -7
-7 -15 -4 -8 4 -15 8 -15 10 0 2 7 4 15 4 8 0 15 -4 15 -10z m-8642 -7 c-15
-2 -42 -2 -60 0 -18 2 -6 4 27 4 33 0 48 -2 33 -4z m502 -3 c-60 -7 -460 -3
-468 5 -3 3 114 4 259 4 150 -1 240 -5 209 -9z m144 -5 c-10 -8 -23 -14 -29
-15 -5 0 -3 5 5 10 12 8 9 10 -13 10 -16 0 -26 -4 -22 -9 3 -6 -3 -9 -14 -8
-41 3 1 27 47 27 42 0 44 -1 26 -15z m1626 -6 c0 -5 -18 -9 -40 -9 -40 0 -56
15 -22 22 24 5 62 -3 62 -13z m5855 12 c7 -13 -30 -24 -55 -16 -28 9 -15 25
20 25 16 0 31 -4 35 -9z m-3218 -23 c-3 -8 -6 -5 -6 6 -1 11 2 17 5 13 3 -3 4
-12 1 -19z m413 12 c0 -5 -5 -10 -11 -10 -5 0 -7 5 -4 10 3 6 8 10 11 10 2 0
4 -4 4 -10z m3940 -10 c0 -5 -4 -10 -10 -10 -5 0 -10 5 -10 10 0 6 5 10 10 10
6 0 10 -4 10 -10z m-2000 -22 c0 -23 -56 -83 -79 -84 -10 -1 -30 -4 -45 -8
-50 -12 -26 12 32 31 52 18 57 22 57 49 0 22 5 30 18 30 9 0 17 -8 17 -18z
m950 12 c0 -5 -7 -10 -16 -10 -8 0 -12 5 -9 10 3 6 10 10 16 10 5 0 9 -4 9
-10z m440 -2 c0 -7 -7 -21 -14 -30 -12 -16 -13 -15 -12 12 1 17 7 30 14 30 6
0 12 -6 12 -12z m-2513 -24 c29 -26 25 -27 -38 -4 -33 12 -38 11 -77 -15 -23
-15 -39 -31 -36 -36 3 -5 -2 -6 -10 -3 -8 3 -23 -3 -33 -13 -25 -25 -65 -53
-76 -53 -5 0 1 9 14 21 21 18 21 20 4 14 -27 -8 -19 -2 56 46 57 38 123 66
156 68 7 1 25 -11 40 -25z m2806 6 c6 -22 0 -25 -23 -10 -11 7 -11 10 -2 10 7
0 10 5 7 10 -3 6 -2 10 3 10 5 0 12 -9 15 -20z m764 14 c-3 -3 -12 -4 -19 -1
-8 3 -5 6 6 6 11 1 17 -2 13 -5z m-5235 -21 c26 -23 22 -33 -13 -33 -24 0 -30
3 -25 16 3 9 6 20 6 25 0 14 11 11 32 -8z m288 -28 c0 -41 -2 -45 -25 -45 -30
0 -32 19 -8 61 24 41 33 36 33 -16z m600 14 c6 -10 10 -30 9 -46 0 -15 -3 -23
-5 -16 -3 7 -11 10 -19 7 -8 -4 -13 3 -13 18 0 13 -3 33 -7 46 -6 18 -4 21 9
16 9 -4 21 -15 26 -25z m1380 -4 c0 -19 -4 -35 -8 -35 -4 0 -6 16 -4 35 2 19
6 35 8 35 2 0 4 -16 4 -35z m-5853 19 c-3 -3 -12 -4 -19 -1 -8 3 -5 6 6 6 11
1 17 -2 13 -5z m2320 0 c-3 -3 -12 -4 -19 -1 -8 3 -5 6 6 6 11 1 17 -2 13 -5z
m1747 -10 c19 -18 19 -20 6 -45 -11 -19 -54 -27 -64 -10 -3 4 5 6 18 4 17 -4
25 1 29 16 2 11 2 22 -1 25 -12 12 -41 5 -51 -11 -9 -15 -10 -15 -11 -2 0 36
46 51 74 23z m3803 -49 c-7 -77 -10 -83 -40 -80 -16 2 -24 -2 -24 -14 0 -9 4
-19 9 -22 11 -7 -48 -59 -65 -58 -7 0 -2 5 10 11 29 14 35 33 21 62 -6 14 -8
32 -4 41 5 15 9 15 23 4 13 -11 15 -11 9 -1 -6 10 -1 11 18 6 25 -6 26 -4 20
25 -5 21 -3 31 6 31 10 0 10 3 0 15 -10 12 -10 18 0 30 20 25 22 18 17 -50z
m-5302 45 c3 -5 1 -10 -4 -10 -6 0 -11 5 -11 10 0 6 2 10 4 10 3 0 8 -4 11
-10z m592 4 c-3 -3 -12 -4 -19 -1 -8 3 -5 6 6 6 11 1 17 -2 13 -5z m123 -6 c0
-8 -18 -12 -35 -8 -5 2 -26 6 -45 11 -30 6 -27 7 23 6 31 0 57 -4 57 -9z
m2980 2 c0 -5 -7 -10 -16 -10 -8 0 -12 5 -9 10 3 6 10 10 16 10 5 0 9 -4 9
-10z m2124 -5 c19 -15 19 -15 -1 -15 -11 0 -23 7 -27 15 -7 19 3 19 28 0z
m-5654 -5 c0 -5 -5 -10 -11 -10 -5 0 -7 5 -4 10 3 6 8 10 11 10 2 0 4 -4 4
-10z m5209 -4 c5 -4 11 -2 13 3 1 5 17 3 33 -5 l30 -14 -32 5 c-25 3 -33 1
-33 -11 0 -13 10 -15 55 -12 l55 3 0 -52 c0 -56 -38 -175 -65 -202 -14 -14
-17 -14 -25 -1 -6 9 -5 17 1 21 6 4 3 9 -7 13 -10 4 -15 4 -11 0 4 -4 2 -13
-4 -21 -9 -10 -8 -17 1 -28 7 -8 8 -15 2 -15 -17 0 -34 27 -22 35 8 5 4 16
-12 34 -12 14 -14 18 -3 9 18 -17 20 -17 39 0 11 9 16 11 12 5 -4 -8 -1 -13 9
-13 9 0 13 5 10 10 -3 6 5 14 19 20 27 10 36 39 14 41 -7 0 -4 4 7 9 17 8 16
9 -10 11 -30 2 -37 2 -85 -6 -27 -4 -53 -32 -43 -48 4 -6 1 -7 -6 -2 -7 4 -22
-2 -35 -14 -25 -23 -115 -61 -144 -61 -9 1 7 9 37 20 63 23 69 27 47 36 -20 8
-21 21 -1 21 8 0 12 -4 9 -8 -2 -4 0 -11 6 -14 14 -9 82 43 74 56 -3 5 0 8 7
7 14 -3 54 62 64 105 6 24 4 29 -24 38 -34 12 -44 40 -11 34 11 -2 24 -6 29
-9z m-507 -8 c-19 -19 -14 -52 13 -92 18 -27 21 -36 10 -36 -18 0 -20 -16 -4
-26 6 -3 15 -1 19 6 5 9 9 9 14 1 4 -6 2 -11 -5 -11 -7 0 -5 -8 7 -22 l19 -21
-30 19 c-16 10 -26 14 -22 7 15 -24 -11 -22 -34 3 -20 21 -21 27 -9 34 12 7
12 12 2 22 -10 10 -14 10 -21 0 -5 -9 -15 2 -29 37 -12 27 -22 52 -22 55 0 3
14 6 30 6 18 0 33 6 36 15 4 8 13 15 22 15 12 0 13 -3 4 -12z m694 -66 c-13
-12 -17 8 -10 40 l9 33 3 -33 c2 -19 1 -36 -2 -40z m-3936 48 c0 -5 -9 -10
-21 -10 -11 0 -17 5 -14 10 3 6 13 10 21 10 8 0 14 -4 14 -10z m2236 -1 c4 -8
9 -8 17 0 6 6 17 11 25 11 28 0 -8 -28 -44 -35 -42 -7 -52 -2 -34 20 15 18 26
19 36 4z m1157 -51 c12 -7 42 -15 67 -19 l45 -8 -53 3 c-54 3 -92 27 -113 71
-6 11 0 8 11 -8 12 -15 32 -33 43 -39z m-3623 37 c-7 -9 -15 -13 -19 -10 -3 3
1 10 9 15 21 14 24 12 10 -5z m987 9 c-3 -3 -12 -4 -19 -1 -8 3 -5 6 6 6 11 1
17 -2 13 -5z m748 -15 c17 -7 34 -11 38 -10 5 1 23 -7 40 -17 25 -14 44 -16
87 -11 30 3 50 6 43 7 -6 1 -11 11 -10 22 2 28 25 22 50 -13 34 -45 16 -52
-143 -52 -85 0 -141 4 -144 10 -1 6 -12 2 -23 -7 -23 -21 -74 -23 -104 -5 -17
10 -22 9 -32 -3 -12 -15 -51 -24 -42 -10 3 5 -7 16 -23 25 -16 10 -34 26 -41
36 -10 18 -9 19 14 13 15 -4 25 -2 25 5 0 6 5 11 11 11 8 0 8 -4 0 -14 -9 -11
-6 -17 15 -30 14 -10 33 -15 41 -11 14 5 14 8 -3 21 -18 14 -18 15 3 5 12 -6
34 -11 50 -10 27 0 27 1 6 9 -13 5 -23 13 -23 18 0 4 -12 13 -27 20 -23 10
-12 11 67 8 52 -3 109 -10 125 -17z m1933 -9 c13 -21 8 -23 -23 -10 -11 5 -14
9 -6 9 11 1 11 4 1 16 -11 13 -10 14 1 10 8 -3 20 -14 27 -25z m549 8 c-3 -8
-6 -5 -6 6 -1 11 2 17 5 13 3 -3 4 -12 1 -19z m195 -13 c2 -19 0 -35 -4 -35
-4 0 -8 16 -8 35 0 19 2 35 4 35 2 0 6 -16 8 -35z m-2202 2 c0 -7 -16 -21 -35
-30 -33 -16 -35 -16 -45 3 -15 28 -14 29 33 33 23 2 43 4 45 5 1 1 2 -4 2 -11z
m425 3 c3 -5 -1 -10 -10 -10 -9 0 -13 5 -10 10 3 6 8 10 10 10 2 0 7 -4 10
-10z m-3176 -27 c0 -16 2 -50 5 -78 6 -49 6 -50 -9 -20 -16 34 -20 125 -5 125
6 0 10 -12 9 -27z m48 -5 c-3 -8 -6 -5 -6 6 -1 11 2 17 5 13 3 -3 4 -12 1 -19z
m1503 18 c0 -3 -15 -14 -32 -26 l-33 -22 30 26 c31 27 35 29 35 22z m2770 -1
c0 -2 -10 -9 -22 -15 -22 -11 -22 -10 -4 4 21 17 26 19 26 11z m1005 -15 c6
-1 0 -5 -13 -8 -12 -4 -71 -5 -130 -3 -72 3 -94 6 -67 10 34 5 179 5 210 1z
m-288 -6 c-3 -3 -12 -4 -19 -1 -8 3 -5 6 6 6 11 1 17 -2 13 -5z m-3978 -36 c0
-18 -3 -27 -6 -19 -5 11 -7 11 -14 0 -7 -11 -9 -10 -9 4 0 9 5 17 10 17 6 0
10 7 10 15 0 8 2 15 5 15 3 0 5 -15 4 -32z m3052 15 c13 -16 12 -17 -3 -4 -17
13 -22 21 -14 21 2 0 10 -8 17 -17z m-653 -20 c3 -18 -1 -21 -19 -18 -12 3
-29 -1 -38 -8 -12 -10 -14 -9 -8 6 4 12 1 17 -9 17 -10 0 -14 -6 -10 -15 3 -8
1 -15 -4 -15 -15 0 -12 22 7 42 24 27 77 21 81 -9z m1497 17 c-4 -6 12 -10 39
-10 33 0 46 -4 46 -14 0 -20 -38 -30 -55 -16 -11 9 -15 9 -15 1 0 -6 -7 -11
-15 -11 -10 0 -15 10 -15 30 0 17 5 30 11 30 5 0 7 -4 4 -10z m82 4 c-3 -3
-12 -4 -19 -1 -8 3 -5 6 6 6 11 1 17 -2 13 -5z m-2230 -26 c-3 -8 -6 -5 -6 6
-1 11 2 17 5 13 3 -3 4 -12 1 -19z m1338 2 c-3 -5 0 -7 9 -4 10 4 21 -7 34
-35 20 -41 20 -41 0 -41 -16 0 -19 5 -16 23 4 20 1 23 -24 19 -15 -2 -25 -9
-22 -14 4 -6 -3 -5 -14 1 l-21 11 22 24 c22 24 44 35 32 16z m952 4 c-3 -3
-12 -4 -19 -1 -8 3 -5 6 6 6 11 1 17 -2 13 -5z m-4512 -41 c-2 -21 -4 -43 -4
-50 -2 -24 -31 -1 -31 24 0 13 4 22 9 19 5 -3 12 5 15 19 9 37 16 30 11 -12z
m2153 17 c-12 -19 -37 -34 -44 -27 -7 6 31 47 44 47 10 0 10 -4 0 -20z m446
11 c49 -10 11 -27 -94 -40 -52 -7 -105 -15 -117 -18 -24 -5 -47 25 -37 51 5
13 24 16 113 15 58 -1 119 -4 135 -8z m-2057 -33 c-3 -7 -5 -2 -5 12 0 14 2
19 5 13 2 -7 2 -19 0 -25z m2706 4 c-38 -4 -39 -7 -14 -49 15 -23 29 -33 53
-36 l33 -4 -35 -1 c-31 -2 -38 3 -62 42 -16 24 -28 47 -28 52 0 5 19 7 43 5
39 -5 40 -6 10 -9z m-3370 -6 c4 -10 1 -13 -9 -9 -15 6 -19 23 -5 23 5 0 11
-7 14 -14z m3440 -3 c-7 -2 -19 -2 -25 0 -7 3 -2 5 12 5 14 0 19 -2 13 -5z
m88 -25 c9 -17 8 -18 -9 -9 -24 13 -38 43 -16 34 8 -3 19 -14 25 -25z m-3495
-24 c1 -9 0 -13 -4 -10 -3 4 -7 14 -8 22 -1 9 0 13 4 10 3 -4 7 -14 8 -22z
m811 -6 c-3 -8 -6 -5 -6 6 -1 11 2 17 5 13 3 -3 4 -12 1 -19z m-637 2 c-8 -5
-24 -9 -35 -9 l-20 0 20 9 c11 5 27 9 35 9 13 1 13 0 0 -9z m356 -25 l-17 -26
-29 21 c-17 12 -30 23 -30 25 0 2 16 3 36 3 19 0 38 3 41 6 15 15 14 -6 -1
-29z m-1102 -54 c-7 -7 -12 3 -19 34 l-6 30 14 -30 c8 -16 13 -32 11 -34z
m1036 4 c0 -2 -7 -2 -15 1 -9 4 -23 -4 -36 -20 -12 -15 -24 -25 -26 -22 -3 3
5 18 18 34 19 23 28 27 42 20 9 -5 17 -11 17 -13z m-765 5 c3 -5 1 -10 -4 -10
-6 0 -11 5 -11 10 0 6 2 10 4 10 3 0 8 -4 11 -10z m74 -29 c9 -17 7 -17 -32
-7 -37 10 -39 11 -14 14 17 2 25 8 21 14 -4 7 -2 8 4 4 7 -4 16 -15 21 -25z
m43 2 c-6 -2 -9 -10 -6 -15 4 -7 2 -8 -5 -4 -13 9 -5 26 12 25 9 0 8 -2 -1 -6z
m668 -7 c0 -19 -80 -107 -91 -100 -11 6 -12 74 -1 74 4 0 14 -6 21 -12 11 -11
12 -10 6 1 -6 11 -4 13 8 8 10 -3 17 -2 17 4 0 6 5 7 11 4 6 -4 13 2 16 14 6
24 13 28 13 7z m3550 -1 c0 -1 -10 -10 -22 -21 -17 -14 -20 -15 -9 -2 7 9 10
22 6 27 -3 7 0 8 9 5 9 -3 16 -7 16 -9z m-1875 -19 c11 -2 -18 -4 -65 -4 -47
0 -77 3 -68 6 16 7 86 5 133 -2z m388 7 c-7 -2 -19 -2 -25 0 -7 3 -2 5 12 5
14 0 19 -2 13 -5z m-1782 -26 c-10 -9 -11 -8 -5 6 3 10 9 15 12 12 3 -3 0 -11
-7 -18z m-907 0 c3 3 6 1 6 -5 0 -16 -12 -15 -36 4 -18 15 -18 15 2 5 12 -6
24 -7 28 -4z m1433 -3 c-3 -3 -12 -4 -19 -1 -8 3 -5 6 6 6 11 1 17 -2 13 -5z
m363 -14 c-14 -4 -34 -8 -45 -8 l-20 -1 20 9 c11 5 31 8 45 8 l25 0 -25 -8z
m-1310 -41 c0 -39 -1 -41 -57 -66 -47 -22 -77 -27 -163 -31 -58 -2 -102 -1
-97 3 4 5 36 7 71 6 75 -3 138 7 130 21 -3 5 -15 6 -26 2 -11 -3 -36 -2 -56 2
l-37 7 40 9 c22 4 74 9 115 10 72 1 73 1 22 7 l-53 6 46 24 c25 13 45 28 45
32 0 5 5 9 10 9 6 0 10 -18 10 -41z m1040 31 c-14 -4 -36 -8 -50 -8 l-25 0 25
8 c14 4 36 8 50 8 l25 0 -25 -8z m83 3 c-7 -2 -19 -2 -25 0 -7 3 -2 5 12 5 14
0 19 -2 13 -5z m107 -3 c0 -5 -2 -10 -4 -10 -3 0 -8 5 -11 10 -3 6 -1 10 4 10
6 0 11 -4 11 -10z m-2090 -20 c6 -11 8 -20 6 -20 -3 0 -10 9 -16 20 -6 11 -8
20 -6 20 3 0 10 -9 16 -20z m468 -17 c36 -23 52 -39 52 -51 0 -6 6 -13 13 -15
7 -3 4 -6 -6 -6 -11 -1 -21 8 -24 19 -3 11 -14 20 -25 20 -10 0 -16 5 -13 10
3 6 -2 10 -13 10 -10 0 -19 7 -19 15 0 19 2 19 35 -2z m-48 -4 c0 -5 -4 -7
-10 -4 -5 3 -17 2 -25 -3 -13 -7 -11 -10 11 -21 15 -6 24 -14 21 -18 -4 -3
-21 4 -39 15 l-33 21 25 10 c33 13 50 13 50 0z m1776 -1 c6 -10 -13 -9 -46 2
-23 8 -22 8 8 7 19 -1 36 -5 38 -9z m-1633 -43 c-3 -9 -8 -14 -10 -11 -3 3 -2
9 2 15 9 16 15 13 8 -4z m862 8 c11 6 21 5 27 -1 13 -13 -48 -26 -92 -20 -16
3 -31 0 -33 -6 -3 -6 -8 -8 -12 -4 -4 4 -3 14 4 21 8 10 22 12 50 7 21 -4 47
-3 56 3z m-935 -25 c0 -10 -19 -9 -45 2 -16 7 -14 8 12 7 18 -1 33 -5 33 -9z
m798 -5 c2 -9 -10 -13 -43 -13 -29 0 -52 -6 -62 -15 -22 -23 -30 -9 -9 14 26
28 105 38 114 14z m-1255 -10 c-7 -2 -19 -2 -25 0 -7 3 -2 5 12 5 14 0 19 -2
13 -5z m-3926 -19 c-3 -3 -12 -4 -19 -1 -8 3 -5 6 6 6 11 1 17 -2 13 -5z
m3130 -10 c-3 -3 -12 -4 -19 -1 -8 3 -5 6 6 6 11 1 17 -2 13 -5z m-3410 -10
c-3 -3 -12 -4 -19 -1 -8 3 -5 6 6 6 11 1 17 -2 13 -5z m630 0 c-3 -3 -12 -4
-19 -1 -8 3 -5 6 6 6 11 1 17 -2 13 -5z m2250 -10 c-3 -3 -12 -4 -19 -1 -8 3
-5 6 6 6 11 1 17 -2 13 -5z m190 0 c-3 -3 -12 -4 -19 -1 -8 3 -5 6 6 6 11 1
17 -2 13 -5z m-664 -11 c-7 -2 -21 -2 -30 0 -10 3 -4 5 12 5 17 0 24 -2 18 -5z
m135 -10 c-10 -2 -28 -2 -40 0 -13 2 -5 4 17 4 22 1 32 -1 23 -4z m208 -3
c-17 -6 -36 -5 -45 0 -11 7 -3 9 29 9 42 -1 43 -1 16 -9z m-83 -7 c-7 -2 -19
-2 -25 0 -7 3 -2 5 12 5 14 0 19 -2 13 -5z m1734 -59 c25 -14 42 -28 40 -31
-3 -2 -27 9 -53 26 -60 37 -48 41 13 5z m-144 9 c-7 -2 -19 -2 -25 0 -7 3 -2
5 12 5 14 0 19 -2 13 -5z m60 0 c-7 -2 -19 -2 -25 0 -7 3 -2 5 12 5 14 0 19
-2 13 -5z m44 -29 c-3 -3 -12 -4 -19 -1 -8 3 -5 6 6 6 11 1 17 -2 13 -5z
m3263 -50 c0 -2 -30 -3 -67 -2 l-68 1 55 6 c52 6 80 4 80 -5z m-657 -1 c-13
-2 -33 -2 -45 0 -13 2 -3 4 22 4 25 0 35 -2 23 -4z m-1093 -13 c11 -7 1 -9
-35 -9 -40 1 -45 3 -25 9 35 11 43 11 60 0z m924 -1 c-3 -5 -26 -8 -52 -8 -41
1 -43 2 -17 8 43 10 76 10 69 0z m81 1 c-3 -5 -10 -10 -16 -10 -5 0 -9 5 -9
10 0 6 7 10 16 10 8 0 12 -4 9 -10z m-358 -6 c-3 -3 -12 -4 -19 -1 -8 3 -5 6
6 6 11 1 17 -2 13 -5z m1218 -14 c3 -5 1 -10 -4 -10 -6 0 -11 5 -11 10 0 6 2
10 4 10 3 0 8 -4 11 -10z m29 -15 c4 -10 -1 -15 -15 -15 -17 0 -18 2 -7 15 16
18 15 18 22 0z m66 4 c8 0 2 -5 -14 -9 -31 -10 -46 -6 -46 12 0 6 10 8 23 4
12 -3 29 -6 37 -7z m-1146 -8 c3 -5 -5 -8 -18 -7 -13 0 -22 4 -19 9 6 10 31 9
37 -2z m40 1 c3 -5 -1 -9 -9 -9 -8 0 -12 4 -9 9 3 4 7 8 9 8 2 0 6 -4 9 -8z
m866 -28 c0 -2 -14 -4 -31 -4 -16 0 -28 4 -25 9 5 8 56 3 56 -5z m255 6 c3 -5
-3 -10 -15 -10 -12 0 -18 5 -15 10 3 6 10 10 15 10 5 0 12 -4 15 -10z m115 -6
c0 -2 -21 -3 -47 -3 -41 1 -44 2 -18 8 28 7 65 4 65 -5z m-750 -14 c11 -8 7
-9 -15 -4 -37 8 -45 14 -19 14 10 0 26 -5 34 -10z m465 0 c-16 -4 -41 -8 -55
-9 -20 0 -22 1 -10 9 8 5 33 9 55 9 39 -1 39 -2 10 -9z m675 -18 c-14 -2 -28
-9 -32 -16 -5 -8 -8 -7 -8 3 0 10 -8 12 -30 8 -16 -4 -30 -2 -30 3 0 10 64 17
100 10 l25 -4 -25 -4z m-127 -9 c-7 -2 -19 -2 -25 0 -7 3 -2 5 12 5 14 0 19
-2 13 -5z m-1158 -13 c18 -8 17 -9 -7 -9 -16 -1 -28 4 -28 9 0 12 8 12 35 0z
m136 -3 c-1 -12 -15 -9 -19 4 -3 6 1 10 8 8 6 -3 11 -8 11 -12z m919 -17 c0
-12 -8 -12 -35 0 -18 8 -17 9 8 9 15 1 27 -3 27 -9z m47 4 c-3 -3 -12 -4 -19
-1 -8 3 -5 6 6 6 11 1 17 -2 13 -5z m-767 -54 c0 -13 -11 -13 -30 0 -12 8 -11
10 8 10 12 0 22 -4 22 -10z m-167 -17 c-3 -7 -9 -10 -14 -7 -14 8 -11 21 5 21
8 0 12 -6 9 -14z m57 7 c0 -5 -9 -10 -20 -10 -11 0 -20 5 -20 10 0 6 9 10 20
10 11 0 20 -4 20 -10z m884 -4 c-3 -8 -12 -12 -20 -9 -21 8 -17 23 6 23 13 0
18 -5 14 -14z m-1114 -4 c0 -4 -9 -8 -20 -9 -11 -1 -20 2 -20 5 0 4 9 8 20 9
11 1 20 -2 20 -5z m68 -19 c-10 -2 -26 -2 -35 0 -10 3 -2 5 17 5 19 0 27 -2
18 -5z m669 -9 c-3 -3 -12 -4 -19 -1 -8 3 -5 6 6 6 11 1 17 -2 13 -5z"/>
<path d="M6940 3586 c70 -7 132 -10 140 -5 10 5 -1 8 -31 9 -25 0 -88 2 -140
5 -88 4 -87 3 31 -9z"/>
<path d="M7225 3569 c72 -4 147 -10 168 -12 20 -3 37 -2 37 2 0 9 -192 22
-280 20 -30 -1 4 -5 75 -10z"/>
<path d="M6570 3481 c0 -4 3 -11 7 -15 10 -9 10 -7 11 -163 2 -126 3 -133 22
-133 19 0 20 7 20 158 l0 159 -30 1 c-16 0 -30 -3 -30 -7z"/>
<path d="M6880 3400 c47 -5 171 -10 275 -13 153 -4 167 -4 75 3 -161 12 -462
20 -350 10z"/>
<path d="M7388 3373 c12 -2 30 -2 40 0 9 3 -1 5 -23 4 -22 0 -30 -2 -17 -4z"/>
<path d="M6900 3210 c58 -4 193 -11 300 -14 107 -4 203 -9 213 -12 9 -3 17 -1
17 4 0 9 -181 20 -465 26 -144 4 -154 3 -65 -4z"/>
<path d="M6589 3133 c-6 -56 7 -282 16 -292 15 -14 20 25 20 152 0 127 -2 142
-17 145 -10 2 -18 0 -19 -5z"/>
<path d="M6858 3023 c29 -2 74 -2 100 0 26 2 2 3 -53 3 -55 0 -76 -1 -47 -3z"/>
<path d="M7034 3018 c-3 -5 61 -7 143 -7 166 2 157 7 -20 11 -66 2 -121 0
-123 -4z"/>
<path d="M7410 3010 c0 -5 5 -10 11 -10 5 0 7 5 4 10 -3 6 -8 10 -11 10 -2 0
-4 -4 -4 -10z"/>
<path d="M3555 3720 c-3 -5 1 -10 9 -10 9 0 16 5 16 10 0 6 -4 10 -9 10 -6 0
-13 -4 -16 -10z"/>
<path d="M3660 3710 c0 -5 5 -10 11 -10 5 0 7 5 4 10 -3 6 -8 10 -11 10 -2 0
-4 -4 -4 -10z"/>
<path d="M3938 3653 c-9 -2 -19 -11 -22 -19 -5 -12 1 -15 27 -12 19 2 32 9 32
17 0 16 -12 21 -37 14z"/>
<path d="M3622 3609 c2 -6 8 -10 13 -10 5 0 11 4 13 10 2 6 -4 11 -13 11 -9 0
-15 -5 -13 -11z"/>
<path d="M3795 3600 c-3 -5 1 -10 9 -10 9 0 16 5 16 10 0 6 -4 10 -9 10 -6 0
-13 -4 -16 -10z"/>
<path d="M4080 3600 c0 -5 4 -10 10 -10 5 0 7 -7 4 -15 -4 -8 -1 -15 5 -15 6
0 11 11 11 25 0 16 -6 25 -15 25 -8 0 -15 -4 -15 -10z"/>
<path d="M3554 3556 c-10 -8 -16 -17 -13 -20 7 -7 59 16 59 27 0 12 -25 8 -46
-7z"/>
<path d="M4135 3560 c4 -6 11 -8 16 -5 5 4 9 0 9 -8 0 -7 7 -14 15 -14 18 0
19 9 3 25 -15 15 -52 16 -43 2z"/>
<path d="M3742 3548 c-20 -20 -13 -28 26 -27 20 0 30 3 22 6 -8 3 -20 11 -26
19 -8 10 -13 11 -22 2z"/>
<path d="M3730 3500 c-7 -4 -10 -14 -7 -22 7 -18 91 -59 95 -47 2 5 10 9 18 9
17 0 18 21 1 44 -14 18 -85 30 -107 16z"/>
<path d="M3953 3503 c9 -2 25 -2 35 0 9 3 1 5 -18 5 -19 0 -27 -2 -17 -5z"/>
<path d="M4150 3498 c0 -9 5 -20 10 -23 13 -8 13 5 0 25 -8 13 -10 13 -10 -2z"/>
<path d="M4170 3440 c-9 -6 -10 -10 -3 -10 6 0 15 5 18 10 8 12 4 12 -15 0z"/>
<path d="M3680 3839 c0 -5 5 -7 10 -4 6 3 10 8 10 11 0 2 -4 4 -10 4 -5 0 -10
-5 -10 -11z"/>
<path d="M9035 3440 c-3 -5 1 -10 9 -10 8 0 18 5 21 10 3 6 -1 10 -9 10 -8 0
-18 -4 -21 -10z"/>
<path d="M9021 3403 c0 -11 3 -13 6 -5 2 6 9 10 14 6 5 -3 9 0 9 5 0 6 -7 11
-15 11 -8 0 -15 -8 -14 -17z"/>
<path d="M9044 2986 c-23 -25 -26 -53 -5 -59 22 -5 31 15 22 49 -5 17 -9 19
-17 10z"/>
<path d="M7795 2115 c-27 -13 -45 -23 -40 -24 6 0 33 11 60 24 28 13 46 23 40
24 -5 0 -32 -11 -60 -24z"/>
<path d="M8463 2118 c-23 -25 -26 -35 -24 -90 1 -35 3 -38 31 -38 l30 0 0 75
c0 41 -4 75 -8 75 -5 0 -18 -10 -29 -22z"/>
<path d="M8615 1910 c-4 -6 6 -10 22 -10 22 0 25 2 13 10 -19 12 -27 12 -35 0z"/>
<path d="M8075 1850 c3 -5 22 -10 41 -10 19 0 34 5 34 10 0 6 -18 10 -41 10
-24 0 -38 -4 -34 -10z"/>
<path d="M8190 1850 c-16 -10 -12 -12 33 -15 29 -2 36 9 11 19 -21 8 -26 7
-44 -4z"/>
<path d="M8304 1843 c8 -8 376 -7 384 2 3 3 -84 5 -193 5 -109 0 -195 -3 -191
-7z"/>
<path d="M3680 1660 c0 -5 5 -10 11 -10 5 0 7 5 4 10 -3 6 -8 10 -11 10 -2 0
-4 -4 -4 -10z"/>
<path d="M4829 1235 c-43 -31 -88 -93 -103 -141 -5 -17 -2 -22 19 -26 14 -3
25 -1 25 5 0 5 20 33 45 62 24 29 41 56 37 60 -4 3 -2 6 3 5 22 -5 27 1 14 17
-10 12 -10 14 -1 9 7 -4 15 -1 18 9 13 33 -12 33 -57 0z m-69 -125 c-6 -11
-13 -20 -16 -20 -2 0 0 9 6 20 6 11 13 20 16 20 2 0 0 -9 -6 -20z"/>
<path d="M4730 1040 c0 -5 5 -10 10 -10 6 0 10 5 10 10 0 6 -4 10 -10 10 -5 0
-10 -4 -10 -10z"/>
<path d="M4740 999 c0 -5 5 -7 10 -4 6 3 10 8 10 11 0 2 -4 4 -10 4 -5 0 -10
-5 -10 -11z"/>
<path d="M4720 970 c0 -5 5 -10 10 -10 6 0 10 5 10 10 0 6 -4 10 -10 10 -5 0
-10 -4 -10 -10z"/>
<path d="M4755 910 c-3 -5 -1 -10 4 -10 6 0 11 5 11 10 0 6 -2 10 -4 10 -3 0
-8 -4 -11 -10z"/>
<path d="M4750 840 c0 -5 5 -10 11 -10 5 0 7 5 4 10 -3 6 -8 10 -11 10 -2 0
-4 -4 -4 -10z"/>
<path d="M5390 830 c0 -5 4 -10 9 -10 6 0 13 5 16 10 3 6 -1 10 -9 10 -9 0
-16 -4 -16 -10z"/>
<path d="M5350 814 c0 -8 5 -12 10 -9 6 4 8 11 5 16 -9 14 -15 11 -15 -7z"/>
<path d="M4770 810 c0 -5 5 -10 11 -10 5 0 7 5 4 10 -3 6 -8 10 -11 10 -2 0
-4 -4 -4 -10z"/>
<path d="M5390 789 c0 -5 5 -7 10 -4 6 3 10 8 10 11 0 2 -4 4 -10 4 -5 0 -10
-5 -10 -11z"/>
<path d="M5350 776 c0 -9 7 -16 16 -16 9 0 14 5 12 12 -6 18 -28 21 -28 4z"/>
<path d="M4770 770 c0 -5 5 -10 10 -10 6 0 10 5 10 10 0 6 -4 10 -10 10 -5 0
-10 -4 -10 -10z"/>
<path d="M5327 773 c-11 -10 -8 -20 9 -37 14 -15 14 -16 0 -16 -9 0 -16 -7
-16 -15 0 -21 13 -19 27 5 13 20 8 50 -9 50 -5 0 -6 5 -3 10 7 11 2 13 -8 3z"/>
<path d="M5295 740 c-3 -5 -3 -15 1 -22 4 -7 3 -8 -5 -4 -6 4 -23 -1 -39 -11
-40 -28 -74 -41 -125 -48 -46 -7 -70 -31 -42 -41 8 -4 13 -9 11 -13 -6 -9 31
-6 62 4 18 6 20 10 10 16 -10 7 -10 9 3 9 8 0 20 -5 26 -11 8 -8 16 -4 28 15
12 19 23 25 36 21 14 -5 19 -1 19 11 0 10 3 14 7 11 6 -7 33 45 33 64 0 12
-17 11 -25 -1z m-75 -95 c0 -2 -9 -3 -19 -2 -11 0 -18 5 -15 9 4 6 34 0 34 -7z
m-80 -15 c0 -5 -2 -10 -4 -10 -3 0 -8 5 -11 10 -3 6 -1 10 4 10 6 0 11 -4 11
-10z"/>
<path d="M4830 730 c0 -5 5 -10 10 -10 6 0 10 5 10 10 0 6 -4 10 -10 10 -5 0
-10 -4 -10 -10z"/>
<path d="M5015 650 c-3 -5 1 -10 9 -10 9 0 16 5 16 10 0 6 -4 10 -9 10 -6 0
-13 -4 -16 -10z"/>
<path d="M4940 640 c0 -5 4 -10 9 -10 6 0 13 5 16 10 3 6 -1 10 -9 10 -9 0
-16 -4 -16 -10z"/>
<path d="M5240 639 c0 -5 5 -7 10 -4 6 3 10 8 10 11 0 2 -4 4 -10 4 -5 0 -10
-5 -10 -11z"/>
<path d="M4977 634 c-8 -8 1 -24 14 -24 5 0 9 7 9 15 0 15 -12 20 -23 9z"/>
<path d="M5046 615 c-4 -10 1 -15 16 -15 17 0 18 2 8 15 -7 8 -14 15 -15 15
-2 0 -5 -7 -9 -15z"/>
<path d="M5010 600 c0 -5 5 -10 10 -10 6 0 10 5 10 10 0 6 -4 10 -10 10 -5 0
-10 -4 -10 -10z"/>
<path d="M9255 1570 c-3 -5 1 -10 10 -10 9 0 13 5 10 10 -3 6 -8 10 -10 10 -2
0 -7 -4 -10 -10z"/>
<path d="M9219 1553 c-13 -16 -12 -17 4 -4 16 13 21 21 13 21 -2 0 -10 -8 -17
-17z"/>
<path d="M7150 1525 c-12 -15 -7 -45 8 -45 4 0 17 6 27 14 16 12 17 16 6 30
-17 20 -25 20 -41 1z"/>
<path d="M7960 1493 c0 -16 30 -37 38 -27 4 5 5 8 3 6 -2 -1 -13 5 -23 15 -10
9 -18 11 -18 6z"/>
<path d="M7206 1334 c-19 -18 -21 -45 -4 -62 15 -15 54 -16 63 -2 3 5 0 7 -9
4 -11 -4 -13 0 -9 14 6 23 -14 39 -29 24 -8 -8 -7 -16 2 -27 7 -8 8 -15 2 -15
-16 0 -23 31 -10 47 7 9 21 12 37 8 25 -5 25 -5 7 10 -25 19 -31 19 -50 -1z"/>
<path d="M7930 1120 c-8 -5 -10 -10 -5 -10 6 0 17 5 25 10 8 5 11 10 5 10 -5
0 -17 -5 -25 -10z"/>
<path d="M3680 1219 c0 -5 5 -7 10 -4 6 3 10 8 10 11 0 2 -4 4 -10 4 -5 0 -10
-5 -10 -11z"/>
<path d="M8880 1190 c0 -5 5 -10 10 -10 6 0 10 5 10 10 0 6 -4 10 -10 10 -5 0
-10 -4 -10 -10z"/>
<path d="M8858 1142 c-7 -27 1 -40 21 -35 11 3 21 15 23 27 3 17 -1 22 -18 24
-13 1 -23 -5 -26 -16z"/>
<path d="M8930 1120 c0 -5 5 -10 10 -10 6 0 10 5 10 10 0 6 -4 10 -10 10 -5 0
-10 -4 -10 -10z"/>
<path d="M5895 1120 c3 -5 12 -10 20 -10 8 0 17 5 20 10 4 6 -5 10 -20 10 -15
0 -24 -4 -20 -10z"/>
<path d="M5990 1100 c0 -5 5 -10 10 -10 6 0 10 5 10 10 0 6 -4 10 -10 10 -5 0
-10 -4 -10 -10z"/>
<path d="M5870 1079 c-12 -8 -10 -9 8 -4 16 5 22 2 22 -9 0 -9 5 -16 10 -16
16 0 11 27 -6 34 -19 7 -16 8 -34 -5z"/>
<path d="M5780 1041 c0 -6 8 -11 18 -11 9 0 27 -3 40 -6 12 -4 22 -2 22 3 0 5
-6 10 -12 10 -7 0 -25 4 -40 8 -18 5 -28 3 -28 -4z"/>
<path d="M5940 1040 c0 -5 4 -10 9 -10 6 0 13 5 16 10 3 6 -1 10 -9 10 -9 0
-16 -4 -16 -10z"/>
<path d="M4028 1093 c7 -3 16 -2 19 1 4 3 -2 6 -13 5 -11 0 -14 -3 -6 -6z"/>
<path d="M3895 1080 c-4 -6 7 -10 27 -9 27 0 30 2 13 9 -27 12 -33 12 -40 0z"/>
<path d="M3960 1080 c0 -5 4 -10 9 -10 6 0 13 5 16 10 3 6 -1 10 -9 10 -9 0
-16 -4 -16 -10z"/>
<path d="M4270 1080 c0 -5 7 -7 15 -4 8 4 15 8 15 10 0 2 -7 4 -15 4 -8 0 -15
-4 -15 -10z"/>
<path d="M3588 1073 c-16 -2 -28 -9 -28 -14 0 -12 177 -12 185 1 4 6 -15 10
-49 10 -30 0 -60 2 -68 3 -7 2 -25 2 -40 0z"/>
<path d="M3794 1068 c-3 -4 15 -8 40 -8 25 0 46 2 46 4 0 8 -82 11 -86 4z"/>
<path d="M4330 1069 c0 -5 5 -7 10 -4 6 3 10 8 10 11 0 2 -4 4 -10 4 -5 0 -10
-5 -10 -11z"/>
<path d="M4080 1059 c-13 -8 -13 -10 0 -19 11 -7 5 -8 -20 -4 -19 4 -32 4 -28
0 3 -5 22 -9 41 -11 28 -3 33 0 32 16 -2 25 -8 30 -25 18z"/>
<path d="M3910 1030 c0 -5 4 -10 9 -10 6 0 13 5 16 10 3 6 -1 10 -9 10 -9 0
-16 -4 -16 -10z"/>
<path d="M8682 1075 c0 -16 2 -22 5 -12 2 9 2 23 0 30 -3 6 -5 -1 -5 -18z"/>
<path d="M8702 1058 c2 -15 11 -24 26 -26 18 -3 22 1 22 22 0 21 -5 26 -26 26
-21 0 -25 -4 -22 -22z"/>
<path d="M8675 1030 c3 -5 8 -10 11 -10 2 0 4 5 4 10 0 6 -5 10 -11 10 -5 0
-7 -4 -4 -10z"/>
<path d="M6070 950 c-9 -6 -10 -10 -3 -10 6 0 15 5 18 10 8 12 4 12 -15 0z"/>
<path d="M9038 883 c7 -3 16 -2 19 1 4 3 -2 6 -13 5 -11 0 -14 -3 -6 -6z"/>
<path d="M8410 950 c0 -5 5 -10 11 -10 5 0 7 5 4 10 -3 6 -8 10 -11 10 -2 0
-4 -4 -4 -10z"/>
<path d="M8450 910 c0 -5 5 -10 10 -10 6 0 10 5 10 10 0 6 -4 10 -10 10 -5 0
-10 -4 -10 -10z"/>
<path d="M6678 903 c23 -2 61 -2 85 0 23 2 4 4 -43 4 -47 0 -66 -2 -42 -4z"/>
<path d="M5360 579 c0 -5 5 -7 10 -4 6 3 10 8 10 11 0 2 -4 4 -10 4 -5 0 -10
-5 -10 -11z"/>
<path d="M2238 4363 c17 -2 47 -2 65 0 17 2 3 4 -33 4 -36 0 -50 -2 -32 -4z"/>
<path d="M2371 4366 c2 -2 58 -7 124 -11 66 -3 172 -10 235 -15 63 -5 179 -10
258 -10 135 0 142 1 142 20 0 20 -7 20 -382 20 -210 0 -379 -2 -377 -4z"/>
<path d="M5850 4360 c-1 -8 -4 -33 -6 -55 -2 -22 -8 -41 -14 -43 -16 -6 -11
-55 9 -82 l19 -24 7 34 c3 20 2 69 -3 110 -5 41 -10 68 -12 60z"/>
<path d="M8020 4349 c7 -11 14 -19 16 -16 7 7 -7 37 -17 37 -6 0 -5 -9 1 -21z"/>
<path d="M9380 4360 c30 -4 98 -10 150 -14 53 -3 121 -15 154 -26 33 -11 65
-20 71 -20 34 0 37 -26 37 -347 0 -175 5 -365 10 -423 5 -58 10 -147 10 -198
1 -51 5 -95 9 -98 10 -6 119 35 119 46 0 4 11 11 25 14 l25 6 0 535 0 535
-332 -1 c-201 -1 -311 -4 -278 -9z"/>
<path d="M4215 4340 c-3 -5 1 -10 9 -10 9 0 16 5 16 10 0 6 -4 10 -9 10 -6 0
-13 -4 -16 -10z"/>
<path d="M1283 4333 c20 -2 54 -2 75 0 20 2 3 4 -38 4 -41 0 -58 -2 -37 -4z"/>
<path d="M1463 4323 c37 -2 97 -2 135 0 37 2 6 3 -68 3 -74 0 -105 -1 -67 -3z"/>
<path d="M2726 4293 l-29 -5 24 -12 c21 -10 24 -20 27 -69 2 -31 7 -57 11 -57
5 0 11 27 15 59 6 50 11 61 29 67 22 7 22 8 -3 15 -28 8 -32 8 -74 2z"/>
<path d="M4588 4288 c9 -9 15 -9 24 0 9 9 7 12 -12 12 -19 0 -21 -3 -12 -12z"/>
<path d="M5852 4040 c0 -19 2 -27 5 -17 2 9 2 25 0 35 -3 9 -5 1 -5 -18z"/>
<path d="M5393 3750 c21 -4 53 -4 70 0 24 6 15 8 -38 8 -58 0 -64 -2 -32 -8z"/>
<path d="M5528 3743 c18 -2 45 -2 60 0 15 2 0 4 -33 4 -33 0 -45 -2 -27 -4z"/>
<path d="M8270 3725 c0 -8 5 -15 10 -15 6 0 10 7 10 15 0 8 -4 15 -10 15 -5 0
-10 -7 -10 -15z"/>
<path d="M2756 3557 c3 -10 9 -15 12 -12 3 3 0 11 -7 18 -10 9 -11 8 -5 -6z"/>
<path d="M9455 3520 c3 -5 10 -10 16 -10 5 0 9 5 9 10 0 6 -7 10 -16 10 -8 0
-12 -4 -9 -10z"/>
<path d="M5405 3471 c-18 -7 -17 -8 5 -12 14 -2 57 -1 95 2 l70 5 -62 2 c-34
1 -67 4 -75 6 -7 3 -22 1 -33 -3z"/>
<path d="M285 3409 c185 -10 384 -9 360 1 -11 5 -126 8 -255 8 -216 -1 -224
-2 -105 -9z"/>
<path d="M8290 3271 c0 -12 19 -25 40 -28 8 -1 16 -7 18 -12 2 -6 9 -11 15
-11 6 0 -2 14 -18 30 -28 29 -55 39 -55 21z"/>
<path d="M5383 3261 c26 -4 68 -4 95 0 36 5 24 6 -48 6 -72 0 -84 -1 -47 -6z"/>
<path d="M9924 3243 c-27 -14 -61 -32 -76 -40 -21 -11 -28 -22 -28 -42 l0 -28
85 -2 85 -2 0 71 c0 38 -4 70 -9 70 -4 0 -30 -12 -57 -27z"/>
<path d="M5568 3253 c12 -2 30 -2 40 0 9 3 -1 5 -23 4 -22 0 -30 -2 -17 -4z"/>
<path d="M181 3186 c2 -2 65 -6 139 -8 82 -3 119 -2 95 3 -39 8 -242 13 -234
5z"/>
<path d="M518 3173 c23 -2 59 -2 80 0 20 2 1 4 -43 4 -44 0 -61 -2 -37 -4z"/>
<path d="M1676 3173 c-3 -3 -157 -6 -343 -6 -244 0 -305 -2 -218 -7 66 -4 218
-8 338 -9 216 -1 218 -1 227 -23 7 -18 9 -19 9 -5 1 9 7 17 14 18 6 0 149 0
317 1 l305 1 -305 8 c-168 5 -312 13 -321 19 -9 5 -19 6 -23 3z"/>
<path d="M2458 3133 c18 -2 45 -2 60 0 15 2 0 4 -33 4 -33 0 -45 -2 -27 -4z"/>
<path d="M9823 3007 c2 -85 5 -111 17 -118 13 -7 13 -8 1 -9 -27 0 27 -40 56
-41 26 -1 25 -2 -9 -12 -31 -9 -38 -15 -38 -35 0 -14 -6 -33 -14 -41 -18 -22
-28 -83 -16 -101 9 -13 12 -13 25 4 7 10 18 15 24 11 16 -9 13 -25 -3 -19 -7
3 -16 -2 -19 -10 -4 -9 -13 -16 -20 -16 -16 0 -27 -122 -27 -296 0 -107 8
-128 47 -123 10 1 37 -1 60 -5 23 -4 51 -5 63 -1 19 6 20 13 20 251 0 226 -1
244 -17 244 -10 -1 -29 -7 -43 -15 -33 -19 -46 -19 -30 0 7 8 19 15 26 15 8 0
14 4 14 10 0 5 11 12 25 16 22 6 25 11 25 54 0 42 -3 49 -22 53 l-23 4 23 8
c19 6 22 14 22 56 0 27 -5 49 -10 49 -14 0 -70 41 -70 51 0 4 11 2 25 -4 14
-7 25 -15 25 -19 0 -5 7 -8 15 -8 12 0 15 15 15 75 l0 75 -68 -3 c-37 -2 -73
-6 -79 -10 -6 -4 -14 -1 -17 5 -3 7 -4 -36 -3 -95z m77 -9 c0 -12 -14 -10 -28
4 -19 19 -14 29 8 16 11 -7 20 -16 20 -20z"/>
<path d="M5428 3053 c7 -3 16 -2 19 1 4 3 -2 6 -13 5 -11 0 -14 -3 -6 -6z"/>
<path d="M5483 3053 c15 -2 39 -2 55 0 15 2 2 4 -28 4 -30 0 -43 -2 -27 -4z"/>
<path d="M1018 2903 c7 -3 16 -2 19 1 4 3 -2 6 -13 5 -11 0 -14 -3 -6 -6z"/>
<path d="M9820 2814 c0 -8 5 -12 10 -9 6 3 10 10 10 16 0 5 -4 9 -10 9 -5 0
-10 -7 -10 -16z"/>
<path d="M8220 2756 c0 -9 5 -16 10 -16 6 0 10 4 10 9 0 6 -4 13 -10 16 -5 3
-10 -1 -10 -9z"/>
<path d="M8186 2674 c-4 -11 0 -15 16 -12 12 2 23 9 26 16 6 18 -35 15 -42 -4z"/>
<path d="M4365 2670 c4 -6 11 -8 16 -5 14 9 11 15 -7 15 -8 0 -12 -5 -9 -10z"/>
<path d="M4367 2644 c-6 -10 9 -42 16 -34 3 3 1 14 -3 24 -3 11 -9 15 -13 10z"/>
<path d="M6643 2592 c-57 -23 -68 -37 -87 -101 -30 -102 -13 -131 40 -68 15
17 31 31 36 30 4 -2 8 1 8 6 0 4 16 28 35 52 35 44 48 100 23 98 -7 0 -32 -8
-55 -17z"/>
<path d="M8177 2540 c-4 -14 0 -20 12 -20 10 0 17 8 18 20 1 11 -4 20 -11 20
-8 0 -16 -9 -19 -20z"/>
<path d="M8023 2463 c9 -2 25 -2 35 0 9 3 1 5 -18 5 -19 0 -27 -2 -17 -5z"/>
<path d="M4365 2415 c0 -44 8 -58 18 -32 8 21 2 70 -8 74 -6 2 -10 -15 -10
-42z"/>
<path d="M4370 2336 c0 -14 5 -28 10 -31 6 -4 10 7 10 24 0 17 -4 31 -10 31
-5 0 -10 -11 -10 -24z"/>
<path d="M1768 2243 c7 -3 16 -2 19 1 4 3 -2 6 -13 5 -11 0 -14 -3 -6 -6z"/>
<path d="M5287 2243 c-4 -3 -7 -11 -7 -17 0 -6 5 -5 12 2 6 6 9 14 7 17 -3 3
-9 2 -12 -2z"/>
<path d="M2606 2151 c-4 -5 -2 -12 3 -15 5 -4 12 -2 15 3 4 5 2 12 -3 15 -5 4
-12 2 -15 -3z"/>
<path d="M2730 2149 c-13 -8 -13 -10 0 -19 21 -14 30 -12 30 4 0 20 -13 27
-30 15z"/>
<path d="M2800 2150 c-12 -8 -9 -10 13 -10 15 0 27 5 27 10 0 13 -20 13 -40 0z"/>
<path d="M2535 2140 c-3 -5 1 -10 9 -10 8 0 18 5 21 10 3 6 -1 10 -9 10 -8 0
-18 -4 -21 -10z"/>
<path d="M1450 2130 c-12 -8 -11 -10 8 -10 12 0 22 5 22 10 0 13 -11 13 -30 0z"/>
<path d="M9646 2110 c-22 -3 -41 -11 -44 -17 -3 -10 40 -13 193 -13 182 0 196
1 193 18 -3 15 -18 17 -153 17 -83 0 -168 -2 -189 -5z"/>
<path d="M2850 2100 c0 -5 5 -10 11 -10 5 0 7 5 4 10 -3 6 -8 10 -11 10 -2 0
-4 -4 -4 -10z"/>
<path d="M9475 2100 c3 -5 12 -10 20 -10 8 0 17 5 20 10 4 6 -5 10 -20 10 -15
0 -24 -4 -20 -10z"/>
<path d="M185 2070 c-3 -5 -1 -10 4 -10 6 0 11 5 11 10 0 6 -2 10 -4 10 -3 0
-8 -4 -11 -10z"/>
<path d="M9953 1943 c9 -2 23 -2 30 0 6 3 -1 5 -18 5 -16 0 -22 -2 -12 -5z"/>
<path d="M9590 1892 c-101 -4 -104 -15 -6 -22 57 -4 91 -10 94 -18 5 -16 74
-16 90 0 10 10 17 10 34 -1 11 -7 23 -9 27 -4 7 9 39 8 114 -3 l47 -7 0 32 0
31 -167 -2 c-93 -2 -197 -4 -233 -6z"/>
<path d="M1088 383 c6 -2 18 -2 25 0 6 3 1 5 -13 5 -14 0 -19 -2 -12 -5z"/>
<path d="M1158 383 c7 -3 16 -2 19 1 4 3 -2 6 -13 5 -11 0 -14 -3 -6 -6z"/>
<path d="M1918 363 c7 -3 16 -2 19 1 4 3 -2 6 -13 5 -11 0 -14 -3 -6 -6z"/>
<path d="M3628 333 c6 -2 18 -2 25 0 6 3 1 5 -13 5 -14 0 -19 -2 -12 -5z"/>
<path d="M3733 323 c9 -2 23 -2 30 0 6 3 -1 5 -18 5 -16 0 -22 -2 -12 -5z"/>
<path d="M460 300 c0 -6 11 -8 28 -4 39 10 40 14 4 14 -18 0 -32 -5 -32 -10z"/>
<path d="M543 303 c9 -2 23 -2 30 0 6 3 -1 5 -18 5 -16 0 -22 -2 -12 -5z"/>
<path d="M4278 303 c12 -2 32 -2 45 0 12 2 2 4 -23 4 -25 0 -35 -2 -22 -4z"/>
<path d="M240 290 c0 -5 5 -10 10 -10 6 0 10 5 10 10 0 6 -4 10 -10 10 -5 0
-10 -4 -10 -10z"/>
<path d="M307 293 c18 -2 50 -2 70 0 21 2 7 4 -32 4 -38 0 -55 -2 -38 -4z"/>
<path d="M4630 283 c0 -5 21 -9 48 -10 37 -1 41 0 22 7 -33 11 -70 12 -70 3z"/>
<path d="M6308 243 c7 -3 16 -2 19 1 4 3 -2 6 -13 5 -11 0 -14 -3 -6 -6z"/>
<path d="M7258 233 c7 -3 16 -2 19 1 4 3 -2 6 -13 5 -11 0 -14 -3 -6 -6z"/>
<path d="M288 223 c7 -3 16 -2 19 1 4 3 -2 6 -13 5 -11 0 -14 -3 -6 -6z"/>
<path d="M385 219 c4 -5 22 -9 42 -9 45 0 40 5 -10 13 -22 3 -35 2 -32 -4z"/>
<path d="M6698 223 c7 -3 16 -2 19 1 4 3 -2 6 -13 5 -11 0 -14 -3 -6 -6z"/>
<path d="M915 180 c4 -6 11 -8 16 -5 14 9 11 15 -7 15 -8 0 -12 -5 -9 -10z"/>
<path d="M984 179 c-3 -5 -4 -9 -2 -9 36 -6 326 -5 322 1 -2 4 17 10 43 12 27
2 -43 4 -155 4 -111 0 -205 -4 -208 -8z"/>
<path d="M950 170 c0 -5 5 -10 10 -10 6 0 10 5 10 10 0 6 -4 10 -10 10 -5 0
-10 -4 -10 -10z"/>
<path d="M1358 163 c7 -3 16 -2 19 1 4 3 -2 6 -13 5 -11 0 -14 -3 -6 -6z"/>
<path d="M6556 158 c2 -3 -2 -9 -8 -11 -7 -3 6 -4 29 -2 22 1 49 8 60 13 14 9
7 11 -34 9 -28 -1 -49 -5 -47 -9z"/>
<path d="M1458 153 c7 -3 16 -2 19 1 4 3 -2 6 -13 5 -11 0 -14 -3 -6 -6z"/>
<path d="M1720 150 c-12 -8 -11 -10 7 -10 12 0 25 5 28 10 8 13 -15 13 -35 0z"/>
<path d="M1793 153 c9 -2 25 -2 35 0 9 3 1 5 -18 5 -19 0 -27 -2 -17 -5z"/>
<path d="M6816 144 c-3 -8 -10 -13 -15 -9 -5 3 -12 1 -15 -4 -8 -12 22 -22 66
-22 18 0 68 -3 111 -5 42 -3 77 -2 77 3 0 4 17 8 37 8 21 0 67 2 103 6 46 4
19 6 -90 7 -282 1 -270 0 -264 17 4 8 4 15 1 15 -3 0 -8 -7 -11 -16z"/>
<path d="M2358 143 c7 -3 16 -2 19 1 4 3 -2 6 -13 5 -11 0 -14 -3 -6 -6z"/>
<path d="M2408 143 c7 -3 16 -2 19 1 4 3 -2 6 -13 5 -11 0 -14 -3 -6 -6z"/>
<path d="M7138 143 c7 -3 16 -2 19 1 4 3 -2 6 -13 5 -11 0 -14 -3 -6 -6z"/>
<path d="M2153 128 c3 -17 19 -28 29 -22 5 3 2 12 -6 20 -18 17 -27 18 -23 2z"/>
<path d="M6453 133 c9 -2 25 -2 35 0 9 3 1 5 -18 5 -19 0 -27 -2 -17 -5z"/>
<path d="M2040 120 c-18 -6 -8 -8 38 -8 34 0 62 3 62 7 0 9 -72 10 -100 1z"/>
<path d="M1978 113 c6 -2 18 -2 25 0 6 3 1 5 -13 5 -14 0 -19 -2 -12 -5z"/>
<path d="M2223 113 c15 -2 37 -2 50 0 12 2 0 4 -28 4 -27 0 -38 -2 -22 -4z"/>
<path d="M2455 110 c3 -5 13 -10 21 -10 8 0 14 5 14 10 0 6 -9 10 -21 10 -11
0 -17 -4 -14 -10z"/>
<path d="M7130 95 c0 -8 4 -15 9 -15 5 0 16 -3 25 -6 26 -10 18 12 -9 24 -21
10 -25 9 -25 -3z"/>
<path d="M2705 89 c-22 -4 -47 -6 -55 -4 -8 3 -22 0 -30 -5 -8 -5 -10 -10 -5
-11 85 -13 655 -18 662 -6 3 5 -24 7 -59 6 -98 -2 -441 13 -458 21 -8 3 -33 3
-55 -1z"/>
<path d="M7090 90 c19 -13 30 -13 30 0 0 6 -10 10 -22 10 -19 0 -20 -2 -8 -10z"/>
<path d="M2524 81 c3 -5 17 -8 31 -8 13 0 22 3 19 8 -3 5 -16 9 -30 9 -14 0
-23 -4 -20 -9z"/>
<path d="M2450 60 c0 -5 7 -10 16 -10 8 0 12 5 9 10 -3 6 -10 10 -16 10 -5 0
-9 -4 -9 -10z"/>
<path d="M7035 61 c-6 -5 -21 -11 -35 -14 -16 -3 -11 -5 17 -6 23 0 48 -4 57
-7 12 -4 16 0 16 15 0 15 -6 21 -23 21 -13 0 -27 -4 -32 -9z"/>
<path d="M3860 19 l-95 -5 128 -2 c80 -1 126 2 122 8 -3 5 -18 8 -33 7 -15 -1
-70 -5 -122 -8z"/>
<path d="M4048 23 c6 -2 18 -2 25 0 6 3 1 5 -13 5 -14 0 -19 -2 -12 -5z"/>
</g>
</svg>
